<?xml version="1.0" encoding="utf-8"?>
<!-- Generator: Adobe Illustrator 18.0.0, SVG Export Plug-In . SVG Version: 6.00 Build 0)  -->
<!DOCTYPE svg PUBLIC "-//W3C//DTD SVG 1.1//EN" "http://www.w3.org/Graphics/SVG/1.1/DTD/svg11.dtd">
<svg version="1.1" id="Layer_1" xmlns="http://www.w3.org/2000/svg" xmlns:xlink="http://www.w3.org/1999/xlink" x="0px" y="0px"
	 viewBox="0 0 474 260" enable-background="new 0 0 474 260" xml:space="preserve">
<g>
	<polygon fill="#DBB983" points="386.7,259.8 0,259.8 0,0 434.9,0 	"/>
	<path fill="#E6087C" d="M370.4,78.9c0-2.8,0-5.7,0-8.5c0.3-0.1,0.2-0.3,0.2-0.5c0.2-2.1,0.6-4.2,1-6.3
		c4.3-20.2,21.7-36.3,42.3-39.2c1.2-0.2,2.5-0.1,3.7-0.6c2.7,0,5.3,0,8,0c0.1,0.3,0.3,0.2,0.5,0.2c2.5,0.2,5,0.6,7.5,1.2
		c20.2,4.7,35.6,21.5,38.7,41.8c0.2,1.2,0.1,2.4,0.6,3.5c0,2.7,0,5.4,0,8.1c-0.3,0.1-0.2,0.3-0.2,0.5c-0.2,2.2-0.6,4.3-1,6.4
		c-4.3,20.1-21.8,36.2-42.3,39.1c-1.2,0.2-2.5,0.1-3.7,0.6c-2.7,0-5.5,0-8.2,0c-0.2-0.3-0.5-0.2-0.7-0.2c-3.4-0.4-6.7-0.9-9.9-2
		c-20-6.7-32-20.4-35.8-41.1C370.8,80.9,370.9,79.8,370.4,78.9z"/>
	<path fill="#E6087C" d="M427.7,68.5c-3.1,0.4-5.8,1.8-8.4,3.2c-0.2,0.1-0.3,0.2-0.1,0.5c0.7,1.1,1.7,1.5,2.9,0.9
		c0.6-0.3,1.2-0.6,1.9-0.8C425.9,71.6,426.8,70.1,427.7,68.5C427.7,68.5,427.8,68.5,427.7,68.5c0.1-0.1,0-0.1,0-0.1
		C427.8,68.4,427.7,68.5,427.7,68.5z"/>
	<path fill="#E6087C" d="M402,65.9c0.1,0.3,0.2,0.7,0.4,1c3.3,7.7,8.2,14.2,14.4,19.8c0.5,0.5,0.9,0.5,1.6,0.1
		c8.5-5.7,14.8-13.3,19.2-22.4c0.9-1.8,0.8-1.9-1.1-2.7c-0.6-0.2-0.8-0.1-1,0.4c-2.4,7.1-7.1,12.7-12.6,17.6
		c-0.4,0.4-0.7,0.4-1.1,0.1c-5.7-4.8-11-10-12.7-17.7c-0.1-0.3-0.2-0.8-0.6-0.7c-0.7,0.2-1.6,0.4-2.1,1c-0.4,0.5,0.2,1,0.4,1.5
		c3,6.3,7,12,12,17c1.3,1.3,1.4,1.1-0.2,2.3c-0.6,0.5-1,0.5-1.5-0.1c-1.5-1.6-3-3.1-4.4-4.8c-3.3-4.2-6.1-8.7-8.1-13.6
		c-0.1-0.3-0.1-0.7-0.6-0.8C403.5,63.9,402,65.4,402,65.9z"/>
	<path fill="#E6087C" d="M419.9,88c1.1,0,2.2,0,3.3,0c1,0,1.8-0.2,2.6-0.8c6.8-5.6,12.3-12.2,16-20.2c0.8-1.8,0.8-1.7-0.9-2.7
		c-0.7-0.4-1-0.2-1.2,0.4c-1,2.3-2.1,4.5-3.5,6.5c-4.3,6.4-9.1,12.3-15.9,16.2C420.1,87.6,419.9,87.6,419.9,88z"/>
	<path fill="#E6087C" d="M429.9,46.7c4.7,10.8,2.2,19.9-6.4,27.5c1.9,1.3,1.9,1.3,3.5-0.2c0.1-0.1,0.2-0.2,0.3-0.3
		c6.7-7,9.1-15,6.1-24.4C432.8,47.2,432.5,47,429.9,46.7z"/>
	<path fill="#E6087C" d="M421.7,98.3c-0.1,0-0.2,0-0.3,0c0-0.1-0.1-0.2-0.1-0.4c-0.4-2.3-0.8-4.7-1.2-7c-0.2-1-0.9-0.6-1.4-0.7
		c-0.6-0.1-0.8,0.2-0.8,0.8c0,3.5,0,7,0,10.6c0,0.8,0.4,0.8,1,0.8c0.6,0,1-0.1,1-0.8c0-0.9,0-1.8,0-2.7c0.4,0.9,0.5,1.8,0.7,2.7
		c0.1,0.6,0.3,0.9,1,0.9c0.7,0,1-0.2,1.1-0.9c0.1-1,0.3-1.9,0.5-2.9c0.2,1,0.2,2,0.2,3c0,0.8,0.4,0.8,1,0.8c0.5,0,1,0,1-0.7
		c0-3.6,0-7.1,0-10.7c0-0.5-0.1-0.7-0.7-0.8c-1.3-0.1-1.4,0-1.6,1.3C422.4,93.8,422.1,96,421.7,98.3z"/>
	<path fill="#E6087C" d="M424,76.5c0-0.1-0.1-0.1-0.1-0.2c-0.3-0.2-0.5-0.3-0.8-0.5c-5-3.1-8.6-7.3-10.4-12.9
		c-0.7-2.2-0.9-4.5-1.1-6.8c0-0.3,0.2-0.8-0.5-0.6c-1.2,0.2-1.9,1-1.8,2.2c0.6,8.3,4.4,14.7,11.3,19.3
		C422.5,78.2,422.5,78.2,424,76.5C424,76.6,424,76.5,424,76.5z"/>
	<path fill="#E6087C" d="M421.2,66.9c-1.2,0.6-2.3,1.3-3.4,1.8c-1,0.4-0.9,0.8-0.3,1.6c0.6,0.8,1.1,0.9,2,0.4c2.3-1.4,4.9-2.5,7.6-3
		c1.9-0.3,2.3-1.7,2.9-3.2c-1.7,0.1-3.2,0.5-4.6,1c-0.5,0.2-1,0.1-1.5-0.1c-2-1.1-4.1-1.9-6.4-2.5c-1.3-0.4-2.7-0.7-4.1-0.8
		c0.2,0.5,0.3,1,0.4,1.4c0.2,1,0.7,1.4,1.7,1.5C417.4,65.4,419.3,66,421.2,66.9z"/>
	<path fill="#E6087C" d="M405.1,95.6c-0.1,0-0.1,0-0.2,0.1c-0.4-1.6-0.8-3.2-1.2-4.8c-0.3-1-1.1-0.6-1.7-0.6
		c-0.7-0.1-0.6,0.5-0.6,0.9c0,3.4,0,6.8,0,10.2c0,0.7,0.2,1,1,1c0.8,0,1-0.3,1-1c0-1.7,0-3.3,0-5c0.3,0.1,0.3,0.3,0.3,0.5
		c0.4,1.6,0.8,3.3,1.2,4.9c0.2,0.9,0.9,0.6,1.5,0.6c0.6,0,0.6-0.4,0.6-0.8c0-3.5,0-6.9,0-10.4c0-0.8-0.3-0.9-1-0.9
		c-0.6,0-1,0.1-0.9,0.8C405.1,92.6,405.1,94.1,405.1,95.6z"/>
	<path fill="#E6087C" d="M437.4,96.4c0,1.7,0,3.4,0,5.1c0,0.6,0.2,0.9,0.9,0.9c1,0,2,0,3,0c1.1-0.1,1.8-0.8,1.9-1.9
		c0-2.8,0-5.6,0-8.3c0-1.1-0.8-1.8-1.9-1.9c-1,0-1.9,0-2.9,0c-0.7,0-1,0.3-0.9,0.9C437.4,92.9,437.4,94.6,437.4,96.4z"/>
	<path fill="#E6087C" d="M415.2,96.3c0-1.4,0-2.8,0-4.2c0-1.3-0.7-1.9-2-2c-0.4,0-0.8,0-1.2,0c-1.7,0-2.3,0.6-2.3,2.3
		c0,2.2,0,4.3,0,6.5c0,3.1,0.4,3.5,3.5,3.4c1.3-0.1,2-0.7,2-2C415.3,99,415.2,97.7,415.2,96.3z"/>
	<path fill="#E6087C" d="M431.4,90.2c-1.6,0-1.6,0-1.8,1.5c0,0.2-0.1,0.3-0.1,0.5c-0.5,3-1,6.1-1.5,9.1c-0.1,0.3-0.3,0.9,0.4,0.9
		c0.5,0,1.3,0.4,1.4-0.3c0.1-1.3,1-2,1.9-2.8c0.2-0.2,0.3-0.5,0.6-0.4c0.2,0.1,0.2,0.4,0.2,0.6c0.1,0.8,0.3,1.5,0.4,2.3
		c0.1,0.4,0.2,0.6,0.7,0.6c1.2,0.1,1.4-0.1,1.2-1.3c-0.5-3.1-1.1-6.2-1.6-9.3C432.8,90.2,432.8,90.2,431.4,90.2z"/>
	<path fill="#E6087C" d="M409.5,54.6c6.7-3.2,13.6-3.8,20.7-1.8c-0.5-2.5-0.5-2.5-2.8-2.8c-0.2,0-0.5-0.1-0.7-0.1
		c-5.5-0.9-10.8-0.3-16,1.8c-0.5,0.2-0.8,0.5-0.9,1.1C409.7,53.3,409.6,53.8,409.5,54.6z"/>
	<path fill="#E6087C" d="M429.3,49c-0.1-0.3-0.1-0.5-0.1-0.7c-0.1-0.4-0.2-0.7-0.3-1.1c-0.1-0.5-0.4-0.7-0.9-0.8
		c-5.9-1.2-11.7-1-17.3,1.1c-1.7,0.6-2.1,1.3-1.9,3.2C415.3,47.6,422.1,47.1,429.3,49z"/>
	<path fill="#E6087C" d="M412.1,46.2c6.9-2.5,13.7-2.3,20.6,0.3c-0.1-0.7-0.2-1.3-0.3-1.9c-0.1-0.5-0.3-0.7-0.8-0.8
		c-5.7-1.7-11.5-2.2-17.3-0.6C412.4,43.7,412.3,43.9,412.1,46.2z"/>
	<path fill="#E6087C" d="M419.2,67c-1-0.3-1.8-0.6-2.6-0.8c-0.5-0.2-0.9,0-1.2,0.3c-0.4,0.4,0,0.7,0.2,1c0.1,0.3,0.3,0.6,0.5,0.9
		c0.2,0.3,0.4,0.4,0.7,0.2C417.4,68,418.2,67.5,419.2,67z"/>
	<path fill="#FEF9FC" d="M402,65.9c0-0.5,1.6-2.1,2-2c0.4,0.1,0.4,0.5,0.6,0.8c2,4.9,4.7,9.4,8.1,13.6c1.4,1.7,2.9,3.3,4.4,4.8
		c0.6,0.6,1,0.5,1.5,0.1c1.5-1.2,1.5-1,0.2-2.3c-5-5-9-10.6-12-17c-0.2-0.5-0.8-1-0.4-1.5c0.5-0.6,1.3-0.8,2.1-1
		c0.4-0.1,0.6,0.4,0.6,0.7c1.8,7.7,7,12.8,12.7,17.7c0.4,0.4,0.7,0.3,1.1-0.1c5.5-4.9,10.2-10.5,12.6-17.6c0.2-0.6,0.4-0.7,1-0.4
		c1.9,0.8,2,0.8,1.1,2.7c-4.4,9.1-10.7,16.7-19.2,22.4c-0.6,0.4-1,0.4-1.6-0.1c-6.3-5.6-11.1-12.1-14.4-19.8
		C402.2,66.6,402.1,66.2,402,65.9z"/>
	<path fill="#FEF9FB" d="M419.9,88c0-0.4,0.2-0.4,0.3-0.5c6.8-4,11.7-9.8,15.9-16.2c1.4-2.1,2.5-4.2,3.5-6.5
		c0.3-0.6,0.5-0.9,1.2-0.4c1.7,1,1.7,1,0.9,2.7c-3.7,8-9.2,14.6-16,20.2c-0.7,0.6-1.6,0.9-2.6,0.8C422.1,87.9,421,88,419.9,88z"/>
	<path fill="#FEF9FC" d="M429.9,46.7c2.5,0.2,2.9,0.5,3.5,2.6c2.9,9.3,0.6,17.4-6.1,24.4c-0.1,0.1-0.2,0.2-0.3,0.3
		c-1.5,1.5-1.5,1.5-3.5,0.2C432.1,66.6,434.6,57.5,429.9,46.7z"/>
	<path fill="#FDF7FA" d="M421.7,98.3c0.4-2.2,0.8-4.5,1.1-6.7c0.2-1.3,0.3-1.4,1.6-1.3c0.6,0,0.7,0.3,0.7,0.8c0,3.6,0,7.1,0,10.7
		c0,0.7-0.4,0.7-1,0.7c-0.6,0-1,0-1-0.8c0-1,0-2-0.2-3c-0.2,1-0.3,1.9-0.5,2.9c-0.1,0.7-0.4,0.9-1.1,0.9c-0.7,0-0.9-0.3-1-0.9
		c-0.1-0.9-0.3-1.8-0.7-2.7c0,0.9,0,1.8,0,2.7c0,0.7-0.4,0.8-1,0.8c-0.6,0-1,0-1-0.8c0-3.5,0-7,0-10.6c0-0.5,0.2-0.9,0.8-0.8
		c0.5,0.1,1.3-0.3,1.4,0.7c0.4,2.3,0.8,4.7,1.2,7c0,0.1,0.1,0.2,0.1,0.4C421.5,98.3,421.6,98.3,421.7,98.3z"/>
	<path fill="#FDF9FB" d="M424,76.5C424,76.5,424,76.6,424,76.5c-1.5,1.7-1.5,1.7-3.3,0.5c-6.9-4.6-10.7-11-11.3-19.3
		c-0.1-1.2,0.6-2,1.8-2.2c0.7-0.1,0.4,0.4,0.5,0.6c0.2,2.3,0.4,4.6,1.1,6.8c1.8,5.6,5.3,9.8,10.4,12.9c0.3,0.2,0.5,0.3,0.8,0.5
		C424,76.4,424,76.5,424,76.5z"/>
	<path fill="#FDF9FB" d="M421.2,66.9c-1.9-0.9-3.8-1.5-5.7-1.9c-1-0.2-1.5-0.6-1.7-1.5c-0.1-0.5-0.3-0.9-0.4-1.4
		c1.5,0.1,2.8,0.5,4.1,0.8c2.2,0.6,4.3,1.4,6.4,2.5c0.5,0.3,0.9,0.3,1.5,0.1c1.5-0.4,2.9-0.8,4.6-1c-0.6,1.5-1,2.8-2.9,3.2
		c-2.7,0.5-5.2,1.6-7.6,3c-0.9,0.5-1.3,0.4-2-0.4c-0.6-0.8-0.7-1.2,0.3-1.6C418.9,68.2,420,67.6,421.2,66.9z"/>
	<path fill="#FEFCFD" d="M405.1,95.6c0-1.5,0-3,0-4.6c0-0.7,0.3-0.8,0.9-0.8c0.7,0,1,0.1,1,0.9c0,3.5,0,6.9,0,10.4
		c0,0.4,0,0.9-0.6,0.8c-0.6,0-1.3,0.3-1.5-0.6c-0.4-1.6-0.8-3.3-1.2-4.9c0-0.2,0-0.3-0.3-0.5c0,1.7,0,3.4,0,5c0,0.7-0.2,1-1,1
		c-0.8,0-1-0.3-1-1c0-3.4,0-6.8,0-10.2c0-0.4-0.1-1,0.6-0.9c0.6,0.1,1.4-0.4,1.7,0.6c0.4,1.6,0.8,3.2,1.2,4.8
		C405,95.6,405,95.6,405.1,95.6z"/>
	<path fill="#FDF6FA" d="M437.4,96.4c0-1.7,0-3.5,0-5.2c0-0.7,0.2-1,0.9-0.9c1,0,1.9,0,2.9,0c1.1,0,1.9,0.7,1.9,1.9
		c0,2.8,0,5.6,0,8.3c0,1.1-0.7,1.8-1.9,1.9c-1,0-2,0-3,0c-0.7,0-0.9-0.3-0.9-0.9C437.4,99.7,437.4,98,437.4,96.4z M439.4,96.2
		c0,1.2,0,2.3,0,3.5c0,0.4-0.1,0.8,0.6,0.8c0.5,0,1.2,0.1,1.2-0.7c0-2.3,0-4.7,0-7c0-0.8-0.7-0.7-1.2-0.7c-0.7,0-0.6,0.4-0.6,0.8
		C439.4,94,439.4,95.1,439.4,96.2z"/>
	<path fill="#FDF6FA" d="M415.2,96.3c0,1.3,0,2.6,0,4c0,1.3-0.7,2-2,2c-3.1,0.1-3.5-0.3-3.5-3.4c0-2.2,0-4.3,0-6.5
		c0-1.6,0.7-2.3,2.3-2.3c0.4,0,0.8,0,1.2,0c1.3,0,1.9,0.7,2,2C415.3,93.6,415.2,95,415.2,96.3z M413.3,96.3c0-1.1,0-2.2,0-3.3
		c0-0.6-0.2-1-0.9-0.9c-0.7,0-0.8,0.4-0.8,0.9c0,2.2,0,4.4,0,6.6c0,0.6,0.2,0.9,0.8,0.9c0.6,0,0.9-0.3,0.9-0.9
		C413.3,98.5,413.3,97.4,413.3,96.3z"/>
	<path fill="#FDF9FB" d="M431.4,90.2c1.5,0,1.5,0,1.7,1.5c0.5,3.1,1,6.2,1.6,9.3c0.2,1.2,0.1,1.3-1.2,1.3c-0.4,0-0.6-0.1-0.7-0.6
		c-0.1-0.8-0.3-1.5-0.4-2.3c0-0.2,0-0.5-0.2-0.6c-0.3-0.1-0.5,0.2-0.6,0.4c-0.8,0.8-1.8,1.4-1.9,2.8c-0.1,0.7-0.9,0.3-1.4,0.3
		c-0.7,0-0.5-0.6-0.4-0.9c0.5-3,1-6.1,1.5-9.1c0-0.2,0.1-0.3,0.1-0.5C429.8,90.2,429.8,90.2,431.4,90.2z M430.5,97.8
		c0.6-0.5,1.5-0.7,1.5-1.5c-0.1-1.1-0.4-2.1-0.5-3.2c0,0-0.1,0-0.1,0C431,94.7,430.7,96.3,430.5,97.8z"/>
	<path fill="#FDF8FB" d="M409.5,54.6c0.1-0.7,0.3-1.3,0.3-1.9c0-0.6,0.3-0.9,0.9-1.1c5.2-2,10.5-2.7,16-1.8c0.2,0,0.5,0.1,0.7,0.1
		c2.3,0.3,2.3,0.3,2.8,2.8C423,50.8,416.2,51.4,409.5,54.6z"/>
	<path fill="#FDF8FB" d="M429.3,49c-7.2-1.9-14-1.4-20.5,1.7c-0.2-1.9,0.2-2.6,1.9-3.2c5.7-2.1,11.5-2.3,17.3-1.1
		c0.5,0.1,0.8,0.4,0.9,0.8c0.1,0.4,0.2,0.7,0.3,1.1C429.2,48.5,429.2,48.7,429.3,49z"/>
	<path fill="#FDF8FB" d="M412.1,46.2c0.2-2.3,0.3-2.5,2.3-3c5.8-1.6,11.6-1.1,17.3,0.6c0.4,0.1,0.7,0.3,0.8,0.8
		c0.1,0.6,0.2,1.1,0.3,1.9C425.9,43.9,419,43.7,412.1,46.2z"/>
	<path fill="#FDF8FB" d="M427.7,68.5c-0.9,1.6-1.8,3.2-3.7,3.8c-0.6,0.2-1.3,0.5-1.9,0.8c-1.2,0.6-2.2,0.3-2.9-0.9
		c-0.1-0.2-0.1-0.4,0.1-0.5C422,70.3,424.7,68.9,427.7,68.5L427.7,68.5z"/>
	<path fill="#FDF3F8" d="M419.2,67c-1,0.6-1.7,1-2.5,1.5c-0.4,0.2-0.5,0.1-0.7-0.2c-0.2-0.3-0.4-0.6-0.5-0.9c-0.1-0.3-0.6-0.6-0.2-1
		c0.3-0.3,0.7-0.5,1.2-0.3C417.3,66.4,418.1,66.6,419.2,67z"/>
	<path fill="#FDF8FB" d="M427.7,68.5c0,0,0-0.1,0-0.1C427.8,68.4,427.8,68.4,427.7,68.5C427.8,68.5,427.7,68.5,427.7,68.5
		L427.7,68.5z"/>
	<path fill="#E71080" d="M439.4,96.2c0-1.1,0-2.2,0-3.4c0-0.4-0.1-0.8,0.6-0.8c0.5,0,1.2-0.1,1.2,0.7c0,2.3,0,4.7,0,7
		c0,0.8-0.7,0.6-1.2,0.7c-0.7,0-0.6-0.4-0.6-0.8C439.4,98.5,439.4,97.4,439.4,96.2z"/>
	<path fill="#E60A7D" d="M413.3,96.3c0,1.1,0,2.2,0,3.2c0,0.6-0.3,0.9-0.9,0.9c-0.6,0-0.8-0.3-0.8-0.9c0-2.2,0-4.4,0-6.6
		c0-0.5,0.1-0.9,0.8-0.9c0.7,0,0.9,0.3,0.9,0.9C413.3,94.1,413.3,95.2,413.3,96.3z"/>
	<path fill="#E81885" d="M430.5,97.8c0.3-1.6,0.5-3.1,0.8-4.7c0,0,0.1,0,0.1,0c0.2,1.1,0.4,2.1,0.5,3.2
		C432,97.2,431.1,97.4,430.5,97.8z"/>
	<path fill="#2E3B92" d="M407.3,164.9c-0.1-0.3-0.1-0.5-0.1-0.7c-0.1-0.4-0.2-0.7-0.3-1.1c-0.1-0.5-0.4-0.7-0.9-0.8
		c-5.9-1.2-11.7-1-17.4,1.1c-1.7,0.6-2.1,1.3-1.9,3.2C393.4,163.5,400.2,163,407.3,164.9z"/>
	<path fill="#2E3B92" d="M390.1,162.1c6.9-2.5,13.8-2.3,20.7,0.3c-0.1-0.7-0.2-1.3-0.3-1.9c-0.1-0.5-0.3-0.7-0.8-0.8
		c-5.7-1.7-11.5-2.2-17.3-0.6C390.5,159.6,390.3,159.7,390.1,162.1z"/>
	<path fill="#2E3B92" d="M348.4,194.8c0-2.9,0-5.7,0-8.6c0.3-0.1,0.2-0.3,0.2-0.5c0.2-2.1,0.6-4.2,1-6.3
		c4.3-20.2,21.8-36.4,42.4-39.3c1.2-0.2,2.5-0.1,3.7-0.6c2.7,0,5.3,0,8,0c0.1,0.3,0.3,0.2,0.5,0.2c2.5,0.2,5,0.6,7.5,1.2
		c20.2,4.7,35.7,21.5,38.7,41.9c0.2,1.2,0.1,2.4,0.6,3.6c0,2.7,0,5.4,0,8.2c-0.3,0.1-0.2,0.3-0.2,0.5c-0.2,2.2-0.6,4.3-1,6.4
		c-4.3,20.1-21.8,36.3-42.4,39.2c-1.2,0.2-2.5,0.1-3.7,0.6c-2.7,0-5.5,0-8.2,0c-0.2-0.3-0.5-0.2-0.7-0.2c-3.4-0.4-6.7-0.9-9.9-2
		c-20.1-6.8-32-20.5-35.9-41.1C348.7,196.9,348.9,195.8,348.4,194.8z"/>
	<path fill="#2E3B92" d="M405.8,184.4c-3.1,0.4-5.8,1.8-8.4,3.2c-0.2,0.1-0.3,0.2-0.1,0.5c0.7,1.1,1.7,1.5,2.9,0.9
		c0.6-0.3,1.2-0.6,1.9-0.8C403.9,187.5,404.8,186,405.8,184.4C405.8,184.4,405.8,184.4,405.8,184.4c0.1-0.1,0.1-0.1,0-0.1
		C405.8,184.3,405.8,184.4,405.8,184.4z"/>
	<path fill="#2E3B92" d="M380,181.8c0.1,0.3,0.2,0.7,0.4,1c3.3,7.7,8.2,14.2,14.4,19.8c0.6,0.5,0.9,0.5,1.6,0.1
		c8.5-5.7,14.8-13.3,19.2-22.5c0.9-1.8,0.8-1.9-1.1-2.7c-0.6-0.2-0.8-0.1-1,0.4c-2.4,7.2-7.1,12.7-12.6,17.6
		c-0.4,0.4-0.7,0.4-1.1,0.1c-5.7-4.8-11-10-12.8-17.7c-0.1-0.3-0.2-0.8-0.6-0.7c-0.8,0.2-1.6,0.4-2.1,1c-0.4,0.5,0.2,1,0.4,1.5
		c3,6.4,7,12,12,17c1.3,1.3,1.4,1.1-0.2,2.3c-0.6,0.5-1,0.5-1.5-0.1c-1.5-1.6-3-3.1-4.4-4.8c-3.3-4.2-6.1-8.7-8.1-13.6
		c-0.1-0.3-0.1-0.7-0.6-0.8C381.6,179.8,380,181.3,380,181.8z"/>
	<path fill="#2E3B92" d="M397.9,203.9c1.1,0,2.2,0,3.3,0c1,0,1.8-0.2,2.6-0.8c6.8-5.6,12.3-12.2,16.1-20.2c0.8-1.8,0.8-1.7-0.9-2.7
		c-0.7-0.4-1-0.2-1.2,0.4c-1,2.3-2.1,4.5-3.5,6.5c-4.3,6.4-9.1,12.3-16,16.3C398.1,203.5,397.9,203.6,397.9,203.9z"/>
	<path fill="#2E3B92" d="M408,162.6c4.7,10.8,2.2,19.9-6.4,27.6c1.9,1.3,1.9,1.3,3.5-0.2c0.1-0.1,0.2-0.2,0.3-0.3
		c6.7-7,9.1-15,6.2-24.4C410.9,163.1,410.5,162.8,408,162.6z"/>
	<path fill="#2E3B92" d="M399.7,214.2c-0.1,0-0.2,0-0.3,0c0-0.1-0.1-0.2-0.1-0.4c-0.4-2.3-0.8-4.7-1.2-7c-0.2-1-0.9-0.6-1.4-0.7
		c-0.6-0.1-0.8,0.2-0.8,0.8c0,3.5,0,7.1,0,10.6c0,0.8,0.4,0.8,1,0.8c0.6,0,1-0.1,1-0.8c0-0.9,0-1.8,0-2.7c0.4,0.9,0.5,1.8,0.7,2.7
		c0.1,0.6,0.3,0.9,1,0.9c0.7,0,1-0.2,1.1-0.9c0.1-1,0.3-1.9,0.5-2.9c0.2,1,0.2,2,0.2,3c0,0.8,0.4,0.8,1,0.8c0.5,0,1,0,1-0.7
		c0-3.6,0-7.1,0-10.7c0-0.5-0.1-0.7-0.7-0.8c-1.3-0.1-1.4,0-1.6,1.3C400.5,209.7,400.1,212,399.7,214.2z"/>
	<path fill="#2E3B92" d="M402.1,192.4c0-0.1-0.1-0.1-0.1-0.2c-0.3-0.2-0.5-0.3-0.8-0.5c-5-3.1-8.6-7.3-10.4-12.9
		c-0.7-2.2-0.9-4.5-1.1-6.8c0-0.3,0.2-0.8-0.5-0.6c-1.2,0.2-1.9,1-1.8,2.2c0.6,8.3,4.4,14.7,11.3,19.3
		C400.6,194.1,400.6,194.1,402.1,192.4C402.1,192.5,402.1,192.5,402.1,192.4z"/>
	<path fill="#2E3B92" d="M399.2,182.8c-1.2,0.6-2.3,1.3-3.4,1.8c-1,0.5-0.9,0.8-0.3,1.6c0.6,0.8,1.1,0.9,2,0.4
		c2.4-1.4,4.9-2.5,7.6-3c1.9-0.3,2.3-1.7,2.9-3.2c-1.7,0.1-3.2,0.5-4.6,1c-0.5,0.2-1,0.1-1.5-0.1c-2-1.1-4.2-1.9-6.4-2.5
		c-1.3-0.4-2.7-0.7-4.1-0.8c0.2,0.5,0.3,1,0.4,1.5c0.2,1,0.7,1.4,1.7,1.5C395.4,181.3,397.3,181.9,399.2,182.8z"/>
	<path fill="#2E3B92" d="M383.1,211.6c-0.1,0-0.1,0-0.2,0.1c-0.4-1.6-0.8-3.2-1.2-4.8c-0.3-1-1.1-0.6-1.7-0.6
		c-0.7-0.1-0.6,0.5-0.6,0.9c0,3.4,0,6.8,0,10.2c0,0.7,0.2,1,1,1c0.8,0,1-0.3,1-1c0-1.7,0-3.3,0-5.1c0.3,0.1,0.3,0.3,0.3,0.5
		c0.4,1.6,0.8,3.3,1.2,4.9c0.2,0.9,0.9,0.6,1.5,0.6c0.6,0,0.6-0.4,0.6-0.8c0-3.5,0-6.9,0-10.4c0-0.8-0.3-0.9-1-0.9
		c-0.6,0-1,0.1-0.9,0.8C383.1,208.5,383.1,210,383.1,211.6z"/>
	<path fill="#2E3B92" d="M415.5,212.3c0,1.7,0,3.4,0,5.1c0,0.6,0.2,0.9,0.9,0.9c1,0,2,0,3,0c1.1-0.1,1.8-0.8,1.9-1.9
		c0-2.8,0-5.6,0-8.3c0-1.1-0.8-1.8-1.9-1.9c-1,0-1.9,0-2.9,0c-0.7,0-1,0.3-0.9,0.9C415.5,208.8,415.5,210.6,415.5,212.3z"/>
	<path fill="#2E3B92" d="M393.3,212.3c0-1.4,0-2.8,0-4.2c0-1.3-0.7-1.9-2-2c-0.4,0-0.8,0-1.2,0c-1.7,0-2.3,0.6-2.3,2.3
		c0,2.2,0,4.3,0,6.5c0,3.1,0.4,3.5,3.5,3.4c1.3-0.1,2-0.7,2-2C393.3,214.9,393.3,213.6,393.3,212.3z"/>
	<path fill="#2E3B92" d="M409.4,206.2c-1.6,0-1.6,0-1.8,1.5c0,0.2-0.1,0.3-0.1,0.5c-0.5,3-1,6.1-1.5,9.1c-0.1,0.3-0.3,0.9,0.4,0.9
		c0.5,0,1.3,0.4,1.4-0.3c0.1-1.3,1-2,1.9-2.8c0.2-0.2,0.3-0.5,0.7-0.4c0.2,0.1,0.2,0.4,0.2,0.6c0.1,0.8,0.3,1.5,0.4,2.3
		c0.1,0.4,0.2,0.6,0.7,0.6c1.2,0.1,1.4-0.1,1.2-1.3c-0.5-3.1-1.1-6.2-1.6-9.3C410.9,206.2,410.9,206.2,409.4,206.2z"/>
	<path fill="#2E3B92" d="M387.5,170.4c6.8-3.2,13.6-3.8,20.7-1.8c-0.5-2.5-0.5-2.5-2.8-2.8c-0.2,0-0.5-0.1-0.7-0.1
		c-5.5-0.9-10.8-0.3-16,1.8c-0.5,0.2-0.8,0.5-0.9,1.1C387.7,169.1,387.6,169.7,387.5,170.4z"/>
	<path fill="#2E3B92" d="M397.2,182.9c-1-0.3-1.8-0.6-2.6-0.9c-0.5-0.2-0.9,0-1.2,0.3c-0.4,0.4,0,0.7,0.2,1c0.1,0.3,0.3,0.6,0.5,0.9
		c0.2,0.3,0.4,0.4,0.7,0.2C395.5,183.9,396.2,183.4,397.2,182.9z"/>
	<path fill="#FEF9FC" d="M380,181.8c0-0.5,1.6-2.1,2-2c0.4,0.1,0.4,0.5,0.6,0.8c2,4.9,4.7,9.5,8.1,13.6c1.4,1.7,2.9,3.3,4.4,4.8
		c0.6,0.6,1,0.5,1.5,0.1c1.5-1.2,1.5-1,0.2-2.3c-5-5-9-10.6-12-17c-0.2-0.5-0.8-1-0.4-1.5c0.5-0.6,1.3-0.8,2.1-1
		c0.4-0.1,0.6,0.4,0.6,0.7c1.8,7.7,7,12.9,12.8,17.7c0.4,0.4,0.7,0.3,1.1-0.1c5.5-4.9,10.2-10.5,12.6-17.6c0.2-0.6,0.4-0.7,1-0.4
		c1.9,0.8,2,0.8,1.1,2.7c-4.4,9.1-10.7,16.7-19.2,22.5c-0.6,0.4-1,0.4-1.6-0.1c-6.3-5.6-11.1-12.1-14.4-19.8
		C380.2,182.5,380.1,182.1,380,181.8z"/>
	<path fill="#FEF9FB" d="M397.9,203.9c0-0.4,0.2-0.4,0.3-0.5c6.8-4,11.7-9.8,16-16.3c1.4-2.1,2.5-4.3,3.5-6.5
		c0.3-0.6,0.5-0.9,1.2-0.4c1.7,1,1.7,1,0.9,2.7c-3.7,8-9.3,14.6-16.1,20.2c-0.7,0.6-1.6,0.9-2.6,0.8
		C400.2,203.9,399.1,203.9,397.9,203.9z"/>
	<path fill="#FEF9FC" d="M408,162.6c2.5,0.2,2.9,0.5,3.5,2.7c2.9,9.4,0.6,17.4-6.2,24.4c-0.1,0.1-0.2,0.2-0.3,0.3
		c-1.6,1.5-1.6,1.5-3.5,0.2C410.2,182.5,412.7,173.4,408,162.6z"/>
	<path fill="#FDF7FA" d="M399.7,214.2c0.4-2.3,0.8-4.5,1.1-6.8c0.2-1.3,0.3-1.4,1.6-1.3c0.6,0,0.7,0.3,0.7,0.8c0,3.6,0,7.1,0,10.7
		c0,0.7-0.4,0.7-1,0.7c-0.6,0-1,0-1-0.8c0-1,0-2-0.2-3c-0.2,1-0.4,1.9-0.5,2.9c-0.1,0.7-0.4,0.9-1.1,0.9c-0.7,0-0.9-0.3-1-0.9
		c-0.1-0.9-0.3-1.8-0.7-2.7c0,0.9,0,1.8,0,2.7c0,0.7-0.4,0.8-1,0.8c-0.6,0-1,0-1-0.8c0-3.5,0-7.1,0-10.6c0-0.5,0.2-0.9,0.8-0.8
		c0.5,0.1,1.3-0.3,1.4,0.7c0.4,2.3,0.8,4.7,1.2,7c0,0.1,0.1,0.3,0.1,0.4C399.5,214.2,399.6,214.2,399.7,214.2z"/>
	<path fill="#FDF9FB" d="M402.1,192.4C402.1,192.5,402.1,192.5,402.1,192.4c-1.5,1.7-1.5,1.7-3.3,0.5c-6.9-4.6-10.7-11.1-11.3-19.3
		c-0.1-1.2,0.6-2,1.8-2.2c0.7-0.1,0.4,0.4,0.5,0.6c0.2,2.3,0.4,4.6,1.1,6.8c1.8,5.6,5.3,9.9,10.4,12.9c0.3,0.2,0.5,0.3,0.8,0.5
		C402,192.3,402,192.4,402.1,192.4z"/>
	<path fill="#FDF9FB" d="M399.2,182.8c-1.9-0.9-3.8-1.5-5.7-1.9c-1-0.2-1.5-0.6-1.7-1.5c-0.1-0.5-0.3-0.9-0.4-1.5
		c1.5,0.1,2.8,0.5,4.1,0.8c2.2,0.6,4.3,1.4,6.4,2.5c0.5,0.3,0.9,0.3,1.5,0.1c1.5-0.4,2.9-0.8,4.6-1c-0.6,1.5-1,2.8-2.9,3.2
		c-2.7,0.5-5.2,1.6-7.6,3c-0.9,0.5-1.3,0.4-2-0.4c-0.6-0.8-0.7-1.2,0.3-1.6C396.9,184.1,398,183.5,399.2,182.8z"/>
	<path fill="#FEFCFD" d="M383.1,211.6c0-1.5,0-3.1,0-4.6c0-0.7,0.3-0.8,0.9-0.8c0.7,0,1,0.1,1,0.9c0,3.5,0,6.9,0,10.4
		c0,0.4,0,0.9-0.6,0.8c-0.6,0-1.3,0.3-1.5-0.6c-0.4-1.6-0.8-3.3-1.2-4.9c0-0.2,0-0.3-0.3-0.5c0,1.7,0,3.4,0,5.1c0,0.7-0.2,1-1,1
		c-0.8,0-1-0.3-1-1c0-3.4,0-6.8,0-10.2c0-0.4-0.1-1,0.6-0.9c0.6,0.1,1.4-0.4,1.7,0.6c0.4,1.6,0.8,3.2,1.2,4.8
		C383,211.6,383.1,211.6,383.1,211.6z"/>
	<path fill="#FDF6FA" d="M415.5,212.3c0-1.7,0-3.5,0-5.2c0-0.7,0.2-1,0.9-0.9c1,0,1.9,0,2.9,0c1.1,0,1.9,0.8,1.9,1.9
		c0,2.8,0,5.6,0,8.3c0,1.1-0.7,1.8-1.9,1.9c-1,0-2,0-3,0c-0.7,0-0.9-0.3-0.9-0.9C415.5,215.7,415.5,214,415.5,212.3z M417.4,212.2
		c0,1.2,0,2.3,0,3.5c0,0.4-0.1,0.8,0.6,0.8c0.5,0,1.2,0.1,1.2-0.7c0-2.3,0-4.7,0-7c0-0.8-0.7-0.7-1.2-0.7c-0.7,0-0.6,0.4-0.6,0.8
		C417.4,209.9,417.4,211,417.4,212.2z"/>
	<path fill="#FDF6FA" d="M393.3,212.3c0,1.3,0,2.6,0,4c0,1.3-0.7,2-2,2c-3.1,0.1-3.5-0.3-3.5-3.4c0-2.2,0-4.3,0-6.5
		c0-1.6,0.7-2.3,2.3-2.3c0.4,0,0.8,0,1.2,0c1.3,0,1.9,0.7,2,2C393.3,209.5,393.3,210.9,393.3,212.3z M391.4,212.3c0-1.1,0-2.2,0-3.4
		c0-0.6-0.2-1-0.9-0.9c-0.7,0-0.8,0.4-0.8,0.9c0,2.2,0,4.4,0,6.6c0,0.6,0.2,0.9,0.8,0.9c0.6,0,0.9-0.3,0.9-0.9
		C391.3,214.5,391.3,213.4,391.4,212.3z"/>
	<path fill="#FDF9FB" d="M409.4,206.2c1.5,0,1.5,0,1.7,1.5c0.5,3.1,1.1,6.2,1.6,9.3c0.2,1.2,0.1,1.3-1.2,1.3c-0.4,0-0.6-0.1-0.7-0.6
		c-0.1-0.8-0.3-1.5-0.4-2.3c0-0.2,0-0.5-0.2-0.6c-0.3-0.1-0.5,0.2-0.7,0.4c-0.8,0.8-1.8,1.4-1.9,2.8c-0.1,0.7-0.9,0.3-1.4,0.3
		c-0.7,0-0.5-0.6-0.4-0.9c0.5-3,1-6.1,1.5-9.1c0-0.2,0.1-0.3,0.1-0.5C407.8,206.2,407.8,206.2,409.4,206.2z M408.5,213.8
		c0.6-0.5,1.5-0.7,1.5-1.5c-0.1-1.1-0.4-2.1-0.5-3.2c0,0-0.1,0-0.1,0C409,210.7,408.8,212.2,408.5,213.8z"/>
	<path fill="#FDF8FB" d="M387.5,170.4c0.1-0.7,0.3-1.3,0.3-1.9c0-0.6,0.3-0.9,0.9-1.1c5.2-2,10.5-2.7,16-1.8c0.2,0,0.5,0.1,0.7,0.1
		c2.3,0.3,2.3,0.3,2.8,2.8C401.1,166.7,394.2,167.2,387.5,170.4z"/>
	<path fill="#FDF8FB" d="M407.3,164.9c-7.2-1.9-14-1.4-20.6,1.7c-0.2-1.9,0.2-2.6,1.9-3.2c5.7-2.1,11.5-2.3,17.4-1.1
		c0.5,0.1,0.8,0.4,0.9,0.8c0.1,0.4,0.2,0.7,0.3,1.1C407.2,164.4,407.3,164.6,407.3,164.9z"/>
	<path fill="#FDF8FB" d="M390.1,162.1c0.2-2.3,0.3-2.5,2.3-3c5.8-1.6,11.6-1.1,17.3,0.6c0.4,0.1,0.7,0.3,0.8,0.8
		c0.1,0.6,0.2,1.1,0.3,1.9C403.9,159.7,397.1,159.6,390.1,162.1z"/>
	<path fill="#FDF8FB" d="M405.8,184.4c-0.9,1.6-1.8,3.2-3.7,3.8c-0.6,0.2-1.3,0.5-1.9,0.8c-1.2,0.6-2.3,0.3-2.9-0.9
		c-0.1-0.2-0.1-0.4,0.1-0.5C400,186.2,402.7,184.8,405.8,184.4L405.8,184.4z"/>
	<path fill="#FDF3F8" d="M397.2,182.9c-1,0.6-1.7,1-2.5,1.5c-0.4,0.2-0.5,0.1-0.7-0.2c-0.2-0.3-0.4-0.6-0.5-0.9
		c-0.1-0.3-0.6-0.6-0.2-1c0.3-0.3,0.7-0.5,1.2-0.3C395.3,182.3,396.2,182.5,397.2,182.9z"/>
	<path fill="#FDF8FB" d="M405.8,184.4c0,0,0-0.1,0-0.1C405.8,184.3,405.8,184.3,405.8,184.4C405.8,184.4,405.8,184.4,405.8,184.4
		L405.8,184.4z"/>
	<path fill="#2E3B92" d="M417.4,212.2c0-1.1,0-2.2,0-3.4c0-0.4-0.1-0.8,0.6-0.8c0.5,0,1.2-0.1,1.2,0.7c0,2.3,0,4.7,0,7
		c0,0.8-0.7,0.6-1.2,0.7c-0.7,0-0.6-0.4-0.6-0.8C417.4,214.5,417.4,213.3,417.4,212.2z"/>
	<path fill="#2E3B92" d="M391.4,212.3c0,1.1,0,2.2,0,3.2c0,0.6-0.3,0.9-0.9,0.9c-0.6,0-0.8-0.3-0.8-0.9c0-2.2,0-4.4,0-6.6
		c0-0.5,0.1-0.9,0.8-0.9c0.7,0,0.9,0.3,0.9,0.9C391.3,210.1,391.4,211.2,391.4,212.3z"/>
	<path fill="#2E3B92" d="M408.5,213.8c0.3-1.6,0.5-3.1,0.8-4.7c0,0,0.1,0,0.1,0c0.2,1.1,0.4,2.1,0.5,3.2
		C410.1,213.1,409.1,213.3,408.5,213.8z"/>
	<g>
		<path fill="#FFFFFF" d="M379.8,222.7c-0.1-0.1-0.2-0.2-0.3-0.3s-0.1-0.3-0.1-0.5v-1.7h0.3v1.7c0,0.2,0,0.3,0.1,0.4
			c0.1,0.1,0.2,0.2,0.3,0.2c0.1,0,0.3-0.1,0.3-0.2s0.1-0.3,0.1-0.4v-1.7h0.3v1.7c0,0.2,0,0.4-0.1,0.5s-0.1,0.3-0.3,0.3
			c-0.1,0.1-0.3,0.1-0.4,0.1C380,222.8,379.9,222.8,379.8,222.7z"/>
		<path fill="#FFFFFF" d="M383,220.2h0.3v2.6H383V220.2z M383.1,221.4h0.7c0.1,0,0.1,0,0.2,0c0,0,0.1-0.1,0.1-0.1s0-0.1,0-0.2
			c0-0.1,0-0.2,0-0.2c0-0.1-0.1-0.1-0.1-0.1c0,0-0.1,0-0.2,0h-0.7v-0.3h0.7c0.1,0,0.2,0,0.3,0.1c0.1,0.1,0.2,0.1,0.2,0.3
			c0.1,0.1,0.1,0.2,0.1,0.4s0,0.3-0.1,0.4s-0.1,0.2-0.2,0.3c-0.1,0.1-0.2,0.1-0.3,0.1h-0.7V221.4z M383.7,221.6l0.3-0.1l0.6,1.3
			h-0.4L383.7,221.6z"/>
		<path fill="#FFFFFF" d="M386.5,220.2h0.3v2.6h-0.3V220.2z M386.7,222.5h0.6c0.2,0,0.3,0,0.3-0.1c0.1-0.1,0.1-0.2,0.1-0.3v0
			c0-0.1,0-0.2,0-0.2c0-0.1-0.1-0.1-0.1-0.1c-0.1,0-0.1-0.1-0.2-0.1h-0.7v-0.3h0.7c0.1,0,0.2,0,0.3-0.1c0.1-0.1,0.1-0.2,0.1-0.3
			c0-0.1,0-0.2-0.1-0.3c-0.1-0.1-0.2-0.1-0.3-0.1h-0.6v-0.3h0.7c0.1,0,0.3,0,0.4,0.1c0.1,0.1,0.2,0.1,0.2,0.2c0,0.1,0.1,0.2,0.1,0.4
			c0,0.1,0,0.2,0,0.3c0,0.1-0.1,0.1-0.1,0.2c-0.1,0.1-0.1,0.1-0.2,0.1c0.1,0,0.2,0.1,0.2,0.1c0.1,0.1,0.1,0.1,0.1,0.2
			c0,0.1,0.1,0.2,0.1,0.3v0c0,0.1,0,0.3-0.1,0.4c-0.1,0.1-0.1,0.2-0.2,0.2c-0.1,0.1-0.2,0.1-0.3,0.1h-0.7V222.5z"/>
		<path fill="#FFFFFF" d="M390.6,220.2h0.3l0.8,2.6h-0.3l-0.6-2.1l-0.6,2.1h-0.3L390.6,220.2z M390.2,221.9h1.1v0.3h-1.1V221.9z"/>
		<path fill="#FFFFFF" d="M393.5,220.2h0.3l1.1,2l0,0v-2h0.3v2.6h-0.3l-1.1-2l0,0v2h-0.3V220.2z"/>
		<path fill="#FFFFFF" d="M401,221.4v0.5c0,0.2,0,0.4-0.1,0.5c-0.1,0.1-0.2,0.3-0.3,0.3s-0.2,0.1-0.4,0.1c-0.2,0-0.3,0-0.4-0.1
			c-0.1-0.1-0.2-0.2-0.3-0.3s-0.1-0.3-0.1-0.5v-0.8c0-0.2,0-0.4,0.1-0.5c0.1-0.1,0.2-0.3,0.3-0.3c0.1-0.1,0.2-0.1,0.4-0.1
			c0.1,0,0.2,0,0.3,0.1c0.1,0.1,0.2,0.2,0.3,0.3c0.1,0.1,0.1,0.3,0.1,0.4h-0.3c0-0.1,0-0.2-0.1-0.2s-0.1-0.1-0.2-0.1
			c-0.1,0-0.1,0-0.2,0c-0.1,0-0.2,0-0.2,0.1c-0.1,0.1-0.1,0.1-0.2,0.2c0,0.1-0.1,0.2-0.1,0.3v0.8c0,0.1,0,0.2,0.1,0.3
			c0,0.1,0.1,0.1,0.2,0.2c0.1,0,0.1,0.1,0.2,0.1s0.2,0,0.2-0.1s0.1-0.1,0.2-0.2c0-0.1,0.1-0.2,0.1-0.3v-0.1h-0.4v-0.3H401z"/>
		<path fill="#FFFFFF" d="M403.6,220.2h0.3l0.8,2.6h-0.3l-0.6-2.1l-0.6,2.1h-0.3L403.6,220.2z M403.2,221.9h1.1v0.3h-1.1V221.9z"/>
		<path fill="#FFFFFF" d="M406.5,220.2h0.3v2.6h-0.3V220.2z M406.7,222.5h1.2v0.3h-1.2V222.5z"/>
		<path fill="#FFFFFF" d="M409.8,220.2h0.3v2.6h-0.3V220.2z M410,222.5h1.2v0.3H410V222.5z"/>
		<path fill="#FFFFFF" d="M413.1,220.2h0.3v2.6h-0.3V220.2z M413.2,220.2h1.2v0.3h-1.2V220.2z M413.2,221.4h1.1v0.3h-1.1V221.4z
			 M413.2,222.5h1.2v0.3h-1.2V222.5z"/>
		<path fill="#FFFFFF" d="M416.5,220.2h0.3v2.6h-0.3V220.2z M416.6,221.4h0.7c0.1,0,0.1,0,0.2,0c0,0,0.1-0.1,0.1-0.1s0-0.1,0-0.2
			c0-0.1,0-0.2,0-0.2c0-0.1-0.1-0.1-0.1-0.1c0,0-0.1,0-0.2,0h-0.7v-0.3h0.7c0.1,0,0.2,0,0.3,0.1c0.1,0.1,0.2,0.1,0.2,0.3
			c0.1,0.1,0.1,0.2,0.1,0.4s0,0.3-0.1,0.4s-0.1,0.2-0.2,0.3c-0.1,0.1-0.2,0.1-0.3,0.1h-0.7V221.4z M417.2,221.6l0.3-0.1l0.6,1.3
			h-0.4L417.2,221.6z"/>
		<path fill="#FFFFFF" d="M420.6,221.8v1.1h-0.3v-1.1l-0.7-1.5h0.3l0.5,1.2l0.5-1.2h0.3L420.6,221.8z"/>
	</g>
	<g>
		<path fill="#FFFFFF" d="M401.6,106.1c-0.1-0.1-0.2-0.2-0.3-0.3c-0.1-0.1-0.1-0.3-0.1-0.5v-1.7h0.3v1.7c0,0.2,0,0.3,0.1,0.4
			c0.1,0.1,0.2,0.2,0.3,0.2c0.1,0,0.3-0.1,0.3-0.2c0.1-0.1,0.1-0.2,0.1-0.4v-1.7h0.3v1.7c0,0.2,0,0.4-0.1,0.5
			c-0.1,0.1-0.1,0.3-0.3,0.3s-0.3,0.1-0.4,0.1C401.9,106.2,401.8,106.1,401.6,106.1z"/>
		<path fill="#FFFFFF" d="M404.9,103.6h0.3v2.6h-0.3V103.6z M405,104.7h0.7c0.1,0,0.1,0,0.2-0.1c0,0,0.1-0.1,0.1-0.1s0-0.1,0-0.2
			c0-0.1,0-0.2,0-0.2s-0.1-0.1-0.1-0.1c0,0-0.1-0.1-0.2-0.1H405v-0.3h0.7c0.1,0,0.2,0,0.3,0.1c0.1,0.1,0.2,0.1,0.2,0.3
			c0.1,0.1,0.1,0.2,0.1,0.4c0,0.1,0,0.3-0.1,0.4c-0.1,0.1-0.1,0.2-0.2,0.3s-0.2,0.1-0.3,0.1H405V104.7z M405.6,105l0.3-0.1l0.6,1.3
			h-0.4L405.6,105z"/>
		<path fill="#FFFFFF" d="M408.4,103.6h0.3v2.6h-0.3V103.6z M408.6,105.8h0.6c0.2,0,0.3,0,0.3-0.1c0.1-0.1,0.1-0.2,0.1-0.3v0
			c0-0.1,0-0.2,0-0.2s-0.1-0.1-0.1-0.1c-0.1,0-0.1-0.1-0.2-0.1h-0.7v-0.3h0.7c0.1,0,0.2,0,0.3-0.1c0.1-0.1,0.1-0.2,0.1-0.3
			c0-0.1,0-0.2-0.1-0.3c-0.1-0.1-0.2-0.1-0.3-0.1h-0.6v-0.3h0.7c0.1,0,0.3,0,0.4,0.1c0.1,0.1,0.2,0.1,0.2,0.2c0,0.1,0.1,0.2,0.1,0.4
			c0,0.1,0,0.2,0,0.3c0,0.1-0.1,0.1-0.1,0.2c-0.1,0.1-0.1,0.1-0.2,0.1c0.1,0,0.2,0.1,0.2,0.1c0.1,0.1,0.1,0.1,0.1,0.2
			c0,0.1,0.1,0.2,0.1,0.3v0c0,0.1,0,0.3-0.1,0.4s-0.1,0.2-0.2,0.2s-0.2,0.1-0.3,0.1h-0.7V105.8z"/>
		<path fill="#FFFFFF" d="M412.5,103.6h0.3l0.8,2.6h-0.3l-0.6-2.1l-0.6,2.1h-0.3L412.5,103.6z M412,105.2h1.1v0.3H412V105.2z"/>
		<path fill="#FFFFFF" d="M415.4,103.6h0.3l1.1,2l0,0v-2h0.3v2.6h-0.3l-1.1-2l0,0v2h-0.3V103.6z"/>
		<path fill="#FFFFFF" d="M422.9,104.8v0.5c0,0.2,0,0.4-0.1,0.5s-0.2,0.3-0.3,0.3c-0.1,0.1-0.2,0.1-0.4,0.1c-0.2,0-0.3,0-0.4-0.1
			s-0.2-0.2-0.3-0.3c-0.1-0.1-0.1-0.3-0.1-0.5v-0.8c0-0.2,0-0.4,0.1-0.5c0.1-0.1,0.2-0.3,0.3-0.3c0.1-0.1,0.2-0.1,0.4-0.1
			c0.1,0,0.2,0,0.3,0.1c0.1,0.1,0.2,0.2,0.3,0.3c0.1,0.1,0.1,0.3,0.1,0.4h-0.3c0-0.1,0-0.2-0.1-0.2s-0.1-0.1-0.2-0.1
			c-0.1,0-0.1,0-0.2,0c-0.1,0-0.2,0-0.2,0.1c-0.1,0.1-0.1,0.1-0.2,0.2c0,0.1-0.1,0.2-0.1,0.3v0.8c0,0.1,0,0.2,0.1,0.3
			c0,0.1,0.1,0.1,0.2,0.2s0.1,0.1,0.2,0.1s0.2,0,0.2-0.1c0.1,0,0.1-0.1,0.2-0.2c0-0.1,0.1-0.2,0.1-0.3v-0.1h-0.4v-0.3H422.9z"/>
		<path fill="#FFFFFF" d="M425.5,103.6h0.3l0.8,2.6h-0.3l-0.6-2.1l-0.6,2.1h-0.3L425.5,103.6z M425.1,105.2h1.1v0.3h-1.1V105.2z"/>
		<path fill="#FFFFFF" d="M428.4,103.6h0.3v2.6h-0.3V103.6z M428.6,105.8h1.2v0.3h-1.2V105.8z"/>
		<path fill="#FFFFFF" d="M431.7,103.6h0.3v2.6h-0.3V103.6z M431.9,105.8h1.2v0.3h-1.2V105.8z"/>
		<path fill="#FFFFFF" d="M435,103.6h0.3v2.6H435V103.6z M435.1,103.6h1.2v0.3h-1.2V103.6z M435.1,104.7h1.1v0.3h-1.1V104.7z
			 M435.1,105.8h1.2v0.3h-1.2V105.8z"/>
		<path fill="#FFFFFF" d="M438.3,103.6h0.3v2.6h-0.3V103.6z M438.5,104.7h0.7c0.1,0,0.1,0,0.2-0.1c0,0,0.1-0.1,0.1-0.1s0-0.1,0-0.2
			c0-0.1,0-0.2,0-0.2s-0.1-0.1-0.1-0.1c0,0-0.1-0.1-0.2-0.1h-0.7v-0.3h0.7c0.1,0,0.2,0,0.3,0.1c0.1,0.1,0.2,0.1,0.2,0.3
			c0.1,0.1,0.1,0.2,0.1,0.4c0,0.1,0,0.3-0.1,0.4c-0.1,0.1-0.1,0.2-0.2,0.3s-0.2,0.1-0.3,0.1h-0.7V104.7z M439.1,105l0.3-0.1l0.6,1.3
			h-0.4L439.1,105z"/>
		<path fill="#FFFFFF" d="M442.5,105.1v1.1h-0.3v-1.1l-0.7-1.5h0.3l0.5,1.2l0.5-1.2h0.3L442.5,105.1z"/>
	</g>
</g>
</svg>
