<?xml version="1.0" encoding="utf-8"?>
<!-- Generator: Adobe Illustrator 18.0.0, SVG Export Plug-In . SVG Version: 6.00 Build 0)  -->
<!DOCTYPE svg PUBLIC "-//W3C//DTD SVG 1.1//EN" "http://www.w3.org/Graphics/SVG/1.1/DTD/svg11.dtd">
<svg version="1.1" id="Layer_1" xmlns="http://www.w3.org/2000/svg" xmlns:xlink="http://www.w3.org/1999/xlink" x="0px" y="0px"
	 viewBox="0 0 210.1 20.2" enable-background="new 0 0 210.1 20.2" xml:space="preserve">
<g>
	<path fill="#FEFDFD" d="M1.5,9.8c0-1.9,0-3.8,0-5.6c0-0.5,0.1-0.7,0.6-0.6c0.2,0,0.3,0,0.5,0c59.2,0,118.3,0,177.5,0
		c-1.7,0.5-2.4,1.7-2.4,3.4c0,1.3,0.4,2.4,1.3,3.3c0.6,0.6,1.2,1.2,1.9,1.8c0.5,0.5,0.9,1,1.1,1.7c0.3,1.1,0,1.9-0.8,2
		c-1.2,0.2-1.4-0.5-1.3-1.4c0.1-0.9-0.6-0.7-1.1-0.7c-0.6,0-1,0-1,0.8c-0.1,1.6,0.7,2.7,2,3.6c-3.8,0-7.5,0-11.3,0
		c1.6-0.8,2.2-2.1,2.2-3.9c-0.1-3.1,0-6.2,0-9.2c0-0.8-0.2-1.1-1.1-1.1c-0.8,0-1.2,0.2-1.1,1.1c0.1,1.2,0,2.4,0,3.6
		c0,2.1,0,4.2,0,6.4c0,0.7-0.3,1.1-0.9,1.2c-0.6,0.1-1-0.4-1.2-1c-0.1-0.3-0.1-0.7-0.1-1.1c0-3,0-6,0-9c0-0.9-0.3-1.1-1.2-1.1
		c-0.8,0-1.1,0.3-1.1,1.1c0,3.1,0.1,6.2,0,9.2c0,1.8,0.6,3.1,2.2,3.9c-54.5,0-109,0-163.6,0c-0.9,0-1.1-0.2-1.1-1.1
		c0.1-1.7,0-3.4,0-5.2c1.1,0,2.1,0,3.2,0c0.7,0,0.9-0.3,0.9-0.9c0-0.6,0-1.1-0.9-1C3.7,9.8,2.6,9.8,1.5,9.8z M101.9,11.8
		c0.1,0,0.2,0,0.3,0c0.1,1.3,0.2,2.7,0.4,4c0.2,1.9,0.2,1.8,2.1,1.9c0.9,0,1.1-0.2,1.2-1.1c0.4-3.9,0.9-7.8,1.3-11.8
		c0-0.4,0.4-1.1-0.5-1c-0.6,0-1.3-0.3-1.4,0.7c-0.1,1.2-0.3,2.5-0.4,3.7c-0.2,1.7-0.4,3.3-0.5,5.1c-0.4-0.3-0.4-0.6-0.4-0.9
		c-0.3-2.6-0.5-5.2-0.7-7.7c0-0.5-0.1-0.9-0.8-0.9c-1.4,0-1.5,0-1.6,1.5c-0.2,2.6-0.5,5.3-0.8,7.9c-0.2-0.3-0.4-0.6-0.4-0.9
		c-0.3-2.5-0.6-5-0.7-7.5c-0.1-1.1-0.6-1-1.4-1.1c-1,0-0.8,0.6-0.8,1.2c0,0.4,0.1,0.7,0.1,1.1c0.4,3.2,0.8,6.3,1.1,9.5
		c0.2,2.2,0.2,2.2,2.3,2.2c0.7,0,1.1-0.1,1.1-1C101.5,15.1,101.7,13.5,101.9,11.8z M24.8,8.2c0.4,0.6,0.5,1.2,0.7,1.8
		c0.6,2.3,1.3,4.5,1.9,6.8c0.3,1.3,1.1,0.9,1.8,0.9c1,0,0.6-0.7,0.6-1.2c0-3.8,0-7.6,0-11.4c0-0.7,0.2-1.3-0.9-1.3
		c-1.1,0-1,0.6-1,1.3c0,2.1,0,4.3,0,6.4c-0.8-2.3-1.5-4.6-2.1-6.9C25.4,3,24.2,4,23.4,3.8c-0.8-0.1-0.5,0.6-0.5,1
		c0,3.9,0,7.8,0,11.8c0,0.7,0,1.1,0.9,1.1c0.9,0,1.1-0.3,1.1-1.1C24.8,13.9,24.8,11.1,24.8,8.2z M60.6,10.7c0,2,0,4.1,0,6.1
		c0,0.8,0.4,0.9,1,0.9c0.6,0,1.2,0.2,1.2-0.8c-0.1-1.3,0-2.6,0-3.8c0-1.1,0.4-1.3,1.4-1c0.7,0.3,0.9,0.8,0.9,1.5c0,1,0.1,1.9,0,2.9
		c-0.1,1.2,0.5,1.2,1.4,1.3c1.2,0.1,0.8-0.7,0.8-1.2c0-1,0-1.9,0-2.9c0-0.9-0.2-1.9-1-2.5c-0.4-0.3-0.2-0.4,0.1-0.7
		c1.1-1.2,1.3-4.2,0.4-5.5C66.4,4.5,66,4.2,65.4,4c-1.3-0.4-2.6-0.2-3.9-0.2c-0.7-0.1-1,0.2-1,1C60.6,6.7,60.6,8.7,60.6,10.7z
		 M149.8,10.7c0,2,0,4.1,0,6.1c0,0.9,0.4,0.9,1,0.9c0.6,0,1.2,0.1,1.2-0.9c-0.1-1.3,0-2.6,0-3.8c0-1,0.4-1.3,1.4-0.9
		c0.7,0.3,0.9,0.8,0.9,1.5c0,1,0.1,2,0,3c-0.1,1.3,0.8,1,1.6,1.1c1.1,0.1,0.6-0.6,0.6-1.1c0-1,0-1.9,0-2.9c0-1-0.2-1.9-1-2.6
		c-0.5-0.4-0.1-0.5,0.1-0.7c1-1.2,1.2-4.2,0.4-5.6c-0.3-0.5-0.8-0.8-1.3-0.9c-1.3-0.4-2.5-0.1-3.8-0.2c-0.9-0.1-1.1,0.3-1.1,1.1
		C149.9,6.8,149.8,8.8,149.8,10.7z M50,3.8c-2,0-1.9,0-2.2,1.9c-0.6,3.6-1.1,7.2-1.8,10.8c-0.2,1,0,1.3,1,1.2c0.8,0,1-0.4,1-1.1
		c0.1-0.6-0.2-1.4,0.7-1.5c1.7-0.3,2.2,0,2.4,1.7c0,0.2,0,0.3,0.1,0.5c0.4,0.8,1.2,0.4,1.8,0.4c0.6,0.1,0.5-0.4,0.4-0.8
		c-0.6-3.9-1.3-7.9-1.9-11.8C51.4,4,51,3.5,50,3.8z M114.3,10.7c0,2,0,4,0,6c0,0.8,0.3,1,1,1c1.3-0.1,2.6,0,3.8,0
		c1.1,0,1.4-0.4,1.1-1.4c-0.2-0.9-1-0.5-1.5-0.5c-2.3-0.1-2.3,0-2.3-2.4c0-1.9,0-1.9,2-1.9c0.8,0,1.1-0.2,1.1-1.1
		c0-0.9-0.5-0.9-1.1-0.9c-0.4,0-0.9,0-1.3,0c-0.4,0-0.6-0.2-0.7-0.6c-0.4-2.9-0.2-3.2,2.7-3.2c0.1,0,0.2,0,0.4,0
		c0.8,0.1,0.8-0.4,0.8-1c0-0.6,0-1-0.8-1c-1.4,0-2.9,0.1-4.3,0c-0.8,0-0.9,0.3-0.9,1C114.3,6.7,114.3,8.7,114.3,10.7z M76.4,11.8
		c0,1.6,0,3.2,0,4.8c0,0.8,0.2,1.1,1,1.1c0.8,0,1.2-0.2,1.2-1.1c-0.1-3.2,0-6.3-0.1-9.5c0-1.2,0.3-1.6,1.4-1.4c0.7,0.1,1-0.2,0.9-1
		c0-0.7-0.1-1-0.9-1c-1.6,0.1-3.1,0-4.7,0c-0.7,0-1.2,0-1.2,1c0,0.9,0.5,1.1,1.2,1c0.9-0.1,1.1,0.2,1.1,1.1
		C76.4,8.5,76.4,10.1,76.4,11.8z M138.6,11.7c0,1.6,0,3.3,0,4.9c0,0.8,0.1,1.1,1,1.1c0.8,0,1.2-0.2,1.2-1.1c-0.1-3.2,0-6.3-0.1-9.5
		c0-1.1,0.3-1.6,1.4-1.4c0.7,0.1,0.9-0.2,1-1c0-0.8-0.3-1-1-1c-1.5,0.1-3,0-4.6,0c-0.7,0-1.2,0-1.2,1c0,0.9,0.4,1.1,1.2,1
		c0.8-0.1,1.1,0.2,1.1,1.1C138.5,8.4,138.6,10.1,138.6,11.7z M15.2,10.8c0-2,0-4.1,0-6.1c0-0.9-0.4-1-1.1-0.9
		c-0.6,0-1.1-0.1-1.1,0.9c0,4,0,8.1,0,12.1c0,0.9,0.4,0.9,1.1,1c0.8,0,1.2-0.1,1.1-1C15.2,14.7,15.2,12.8,15.2,10.8z"/>
	<path fill="#FEFDFD" d="M208.2,11.7c0,1.8,0,3.6,0,5.4c0,0.7-0.1,0.9-0.9,0.9c-8.4,0-16.9,0-25.3,0c2.4-1.4,2.9-3.8,1.4-6.2
		c-0.6-0.9-1.4-1.5-2.1-2.3c-0.6-0.6-1.2-1.3-1.3-2.2c0-0.7-0.1-1.6,0.9-1.7c0.9-0.1,1.1,0.6,1.1,1.3c0.1,1,0.8,0.6,1.4,0.7
		c0.7,0.1,0.7-0.4,0.7-0.9c0-1.6-0.9-2.5-2.2-3.1c8.4,0,16.9,0,25.3,0c0.7,0,0.9,0.1,0.9,0.9c-0.1,1.9,0,3.8,0,5.6
		c-1.1-0.5-2.2-0.1-3.3-0.3c-0.9-0.1-0.8,0.5-0.8,1.1c0,0.7,0.2,0.9,0.9,0.9C206,11.7,207.1,11.7,208.2,11.7z M195.5,11.8
		c0-1.6,0.1-3.1,0-4.7c-0.1-1.2,0.3-1.6,1.4-1.4c0.8,0.1,1-0.3,0.9-1c0-0.7-0.1-1-0.9-1c-1.6,0.1-3.2,0-4.8,0c-0.7,0-1.1,0.1-1.1,1
		c0,0.8,0.3,1.1,1.1,1c1-0.2,1.2,0.3,1.2,1.2c-0.1,3.3,0,6.6,0,9.9c0,0.9,0.4,0.9,1,0.9c0.6,0,1.2,0.1,1.2-0.9
		C195.4,15.2,195.5,13.5,195.5,11.8z"/>
	<path fill="#DBB985" d="M166.2,17.9c-1.6-0.8-2.2-2.1-2.2-3.9c0.1-3.1,0-6.2,0-9.2c0-0.8,0.2-1.1,1.1-1.1c0.9,0,1.2,0.2,1.2,1.1
		c-0.1,3,0,6,0,9c0,0.4,0,0.7,0.1,1.1c0.1,0.6,0.5,1,1.2,1c0.7-0.1,0.9-0.5,0.9-1.2c0-2.1,0-4.2,0-6.4c0-1.2,0.1-2.4,0-3.6
		c-0.1-0.9,0.3-1,1.1-1.1c0.9,0,1.1,0.3,1.1,1.1c0,3.1-0.1,6.2,0,9.2c0,1.8-0.5,3.1-2.2,3.9C167.6,17.9,166.9,17.9,166.2,17.9z"/>
	<path fill="#DBBA85" d="M182,3.5c1.3,0.6,2.2,1.6,2.2,3.1c0,0.5,0,1-0.7,0.9c-0.5-0.1-1.3,0.3-1.4-0.7c0-0.8-0.3-1.4-1.1-1.3
		c-1,0.1-0.9,0.9-0.9,1.7c0,1,0.6,1.6,1.3,2.2c0.7,0.7,1.5,1.4,2.1,2.3c1.5,2.4,1,4.8-1.4,6.2c-0.8,0-1.6,0-2.4,0
		c-1.2-0.9-2-1.9-2-3.6c0-0.8,0.4-0.8,1-0.8c0.5,0,1.2-0.2,1.1,0.7c-0.1,0.9,0.1,1.6,1.3,1.4c0.8-0.1,1.2-0.9,0.8-2
		c-0.2-0.7-0.6-1.2-1.1-1.7c-0.6-0.6-1.3-1.2-1.9-1.8c-0.9-0.9-1.3-2-1.3-3.3c0-1.7,0.7-2.9,2.4-3.4C180.7,3.5,181.4,3.5,182,3.5z"
		/>
	<path fill="#DBB984" d="M1.5,9.8c1.1,0,2.1,0,3.2,0c0.8,0,0.8,0.4,0.9,1c0,0.6-0.1,1-0.9,0.9c-1.1,0-2.1,0-3.2,0
		C1.5,11.1,1.5,10.4,1.5,9.8z"/>
	<path fill="#DAB882" d="M208.2,11.7c-1.1,0-2.1,0-3.2,0c-0.7,0-0.9-0.2-0.9-0.9c0-0.6-0.1-1.2,0.8-1.1c1.1,0.1,2.2-0.3,3.3,0.3
		C208.2,10.6,208.2,11.1,208.2,11.7z"/>
	<path fill="#DBBA85" d="M101.9,11.8c-0.2,1.6-0.5,3.3-0.6,4.9c-0.1,0.8-0.4,1-1.1,1c-2.2,0-2.1,0-2.3-2.2c-0.3-3.2-0.7-6.3-1.1-9.5
		c0-0.4-0.1-0.7-0.1-1.1c0-0.6-0.2-1.2,0.8-1.2c0.8,0,1.3,0,1.4,1.1c0.1,2.5,0.5,5,0.7,7.5c0,0.3,0.2,0.6,0.4,0.9
		c0.3-2.6,0.5-5.3,0.8-7.9c0.1-1.5,0.2-1.6,1.6-1.5c0.7,0,0.7,0.4,0.8,0.9c0.2,2.6,0.5,5.2,0.7,7.7c0,0.3,0,0.6,0.4,0.9
		c0.2-1.8,0.4-3.4,0.5-5.1c0.1-1.2,0.3-2.5,0.4-3.7c0.1-1.1,0.9-0.7,1.4-0.7c0.8,0,0.5,0.6,0.5,1c-0.4,3.9-0.9,7.8-1.3,11.8
		c-0.1,0.9-0.3,1.1-1.2,1.1c-1.9,0-1.9,0-2.1-1.9c-0.2-1.3-0.3-2.7-0.4-4C102.1,11.8,102,11.8,101.9,11.8z"/>
	<path fill="#DAB983" d="M24.8,8.2c0,2.9,0,5.6,0,8.4c0,0.8-0.2,1.1-1.1,1.1c-0.9,0-0.9-0.5-0.9-1.1c0-3.9,0-7.8,0-11.8
		c0-0.4-0.2-1.2,0.5-1c0.8,0.1,2-0.8,2.4,0.7c0.6,2.3,1.3,4.6,2.1,6.9c0-2.1,0-4.3,0-6.4c0-0.7-0.1-1.3,1-1.3c1.1,0,0.9,0.7,0.9,1.3
		c0,3.8,0,7.6,0,11.4c0,0.5,0.3,1.3-0.6,1.2c-0.7,0-1.6,0.4-1.8-0.9c-0.5-2.3-1.2-4.5-1.9-6.8C25.4,9.4,25.3,8.8,24.8,8.2z"/>
	<path fill="#DBB984" d="M60.6,10.7c0-2,0-4,0-6c0-0.7,0.2-1,1-1c1.3,0.1,2.6-0.1,3.9,0.2c0.6,0.2,1,0.4,1.3,0.9
		c0.9,1.3,0.7,4.4-0.4,5.5c-0.2,0.2-0.5,0.3-0.1,0.7c0.8,0.6,0.9,1.5,1,2.5c0,1,0,1.9,0,2.9c0,0.5,0.4,1.3-0.8,1.2
		c-0.9,0-1.5-0.1-1.4-1.3c0.1-1,0-1.9,0-2.9c0-0.7-0.2-1.2-0.9-1.5c-1-0.4-1.4-0.1-1.4,1c0,1.3,0,2.6,0,3.8c0,1-0.6,0.8-1.2,0.8
		c-0.6,0-1-0.1-1-0.9C60.6,14.8,60.6,12.7,60.6,10.7z M62.7,7.8c0,0.3,0,0.6,0,1c0.1,0.5-0.4,1.2,0.6,1.3c0.8,0.1,1.5-0.1,1.7-1
		c0.2-0.8,0.2-1.7,0-2.5c-0.2-0.8-0.9-0.9-1.6-0.8c-0.9,0-0.6,0.7-0.6,1.1C62.7,7.2,62.7,7.5,62.7,7.8z"/>
	<path fill="#DBB984" d="M149.8,10.7c0-2,0-3.9,0-5.9c0-0.8,0.2-1.2,1.1-1.1c1.3,0.1,2.6-0.1,3.8,0.2c0.6,0.2,1,0.4,1.3,0.9
		c0.9,1.3,0.7,4.4-0.4,5.6c-0.2,0.2-0.6,0.3-0.1,0.7c0.8,0.7,1,1.6,1,2.6c0,1,0,1.9,0,2.9c0,0.4,0.5,1.2-0.6,1.1
		c-0.8-0.1-1.7,0.2-1.6-1.1c0.1-1,0-2,0-3c0-0.7-0.2-1.3-0.9-1.5c-1-0.4-1.4-0.1-1.4,0.9c0,1.3-0.1,2.6,0,3.8c0,1-0.6,0.8-1.2,0.9
		c-0.6,0-1.1,0-1-0.9C149.9,14.8,149.8,12.8,149.8,10.7z M152,7.9c0,0.3,0,0.6,0,1c0.1,0.4-0.3,1.1,0.6,1.2c0.8,0.1,1.5-0.1,1.7-0.9
		c0.2-0.8,0.2-1.7,0-2.5c-0.2-0.9-1-0.9-1.7-0.9c-0.8,0.1-0.5,0.7-0.5,1.1C152,7.2,152,7.5,152,7.9z"/>
	<path fill="#DBBA85" d="M50,3.8c1-0.3,1.4,0.2,1.6,1.3c0.6,3.9,1.3,7.9,1.9,11.8c0.1,0.4,0.2,0.8-0.4,0.8c-0.6-0.1-1.4,0.4-1.8-0.4
		c-0.1-0.1,0-0.3-0.1-0.5c-0.2-1.7-0.6-2-2.4-1.7c-0.9,0.2-0.7,1-0.7,1.5c-0.1,0.7-0.2,1.1-1,1.1c-1,0-1.2-0.2-1-1.2
		c0.7-3.6,1.2-7.2,1.8-10.8C48.1,3.8,48.1,3.8,50,3.8z M49.7,6.7c-0.1,0-0.1,0-0.2,0c-0.3,1.9-0.6,3.8-0.9,5.7
		c-0.2,1,0.7,0.6,1.1,0.7c0.4,0,1,0.2,0.9-0.7C50.3,10.5,50,8.6,49.7,6.7z"/>
	<path fill="#DAB883" d="M114.3,10.7c0-2,0-4,0-6c0-0.7,0.2-1,0.9-1c1.4,0.1,2.9,0.1,4.3,0c0.8,0,0.8,0.4,0.8,1c0,0.6,0,1.1-0.8,1
		c-0.1,0-0.2,0-0.4,0c-2.9,0-3.1,0.2-2.7,3.2c0.1,0.4,0.2,0.6,0.7,0.6c0.4,0,0.9,0,1.3,0c0.7,0,1.1,0,1.1,0.9c0,0.9-0.3,1.1-1.1,1.1
		c-2,0-2,0-2,1.9c0,2.3,0,2.3,2.3,2.4c0.5,0,1.3-0.4,1.5,0.5c0.3,1.1,0,1.4-1.1,1.4c-1.3,0-2.6,0-3.8,0c-0.8,0-1.1-0.2-1-1
		C114.4,14.7,114.3,12.7,114.3,10.7z"/>
	<path fill="#DAB983" d="M76.4,11.8c0-1.7,0-3.4,0-5c0-0.8-0.2-1.2-1.1-1.1c-0.7,0.1-1.2,0-1.2-1c0-1,0.5-1,1.2-1c1.6,0,3.1,0,4.7,0
		c0.8,0,0.9,0.3,0.9,1c0,0.7-0.2,1.1-0.9,1c-1.2-0.2-1.5,0.3-1.4,1.4c0.1,3.2,0,6.3,0.1,9.5c0,0.9-0.3,1.1-1.2,1.1
		c-0.9,0-1.1-0.3-1-1.1C76.4,15,76.4,13.4,76.4,11.8z"/>
	<path fill="#DAB983" d="M138.6,11.7c0-1.6,0-3.3,0-4.9c0-0.8-0.2-1.2-1.1-1.1c-0.7,0.1-1.2,0-1.2-1c0-1,0.5-1,1.2-1
		c1.5,0,3,0,4.6,0c0.8,0,1.1,0.2,1,1c0,0.7-0.2,1.1-1,1c-1.2-0.2-1.5,0.3-1.4,1.4c0.1,3.2,0,6.3,0.1,9.5c0,1-0.3,1.1-1.2,1.1
		c-0.9,0-1.1-0.3-1-1.1C138.6,15,138.6,13.3,138.6,11.7z"/>
	<path fill="#DAB882" d="M15.2,10.8c0,2,0,3.9,0,5.9c0,0.9-0.4,1-1.1,1c-0.7,0-1.1-0.1-1.1-1c0-4,0-8.1,0-12.1
		c0-0.9,0.5-0.9,1.1-0.9c0.7,0,1.1,0.1,1.1,0.9C15.2,6.7,15.2,8.8,15.2,10.8z"/>
	<path fill="#DAB983" d="M195.5,11.8c0,1.7,0,3.4,0,5c0,1-0.6,0.8-1.2,0.9c-0.6,0-1.1,0-1-0.9c0-3.3,0-6.6,0-9.9
		c0-0.9-0.2-1.3-1.2-1.2c-0.7,0.1-1.1-0.2-1.1-1c0-0.8,0.3-1,1.1-1c1.6,0,3.2,0,4.8,0c0.8,0,0.9,0.3,0.9,1c0,0.7-0.2,1.1-0.9,1
		c-1.2-0.2-1.5,0.3-1.4,1.4C195.5,8.7,195.5,10.3,195.5,11.8z"/>
	<path fill="#FCFAF6" d="M62.7,7.8c0-0.3,0-0.6,0-1c0-0.5-0.3-1.1,0.6-1.1c0.7,0,1.4,0,1.6,0.8c0.2,0.8,0.2,1.7,0,2.5
		c-0.2,0.8-0.9,1-1.7,1c-1-0.1-0.5-0.8-0.6-1.3C62.7,8.4,62.7,8.1,62.7,7.8z"/>
	<path fill="#FCFAF6" d="M152,7.9c0-0.4,0-0.7,0-1.1c0-0.4-0.3-1,0.5-1.1c0.7,0,1.5,0,1.7,0.9c0.2,0.8,0.2,1.7,0,2.5
		c-0.2,0.8-0.9,1-1.7,0.9c-0.9-0.1-0.5-0.7-0.6-1.2C152,8.5,152,8.2,152,7.9z"/>
	<path fill="#FCF9F6" d="M49.7,6.7c0.3,1.9,0.6,3.8,0.9,5.8c0.2,0.9-0.4,0.7-0.9,0.7c-0.4,0-1.3,0.4-1.1-0.7
		c0.3-1.9,0.6-3.8,0.9-5.7C49.6,6.7,49.7,6.7,49.7,6.7z"/>
</g>
</svg>
