<?xml version="1.0" encoding="utf-8"?>
<!-- Generator: Adobe Illustrator 18.0.0, SVG Export Plug-In . SVG Version: 6.00 Build 0)  -->
<!DOCTYPE svg PUBLIC "-//W3C//DTD SVG 1.1//EN" "http://www.w3.org/Graphics/SVG/1.1/DTD/svg11.dtd">
<svg version="1.1" id="Layer_1" xmlns="http://www.w3.org/2000/svg" xmlns:xlink="http://www.w3.org/1999/xlink" x="0px" y="0px"
	 viewBox="0 0 50.3 80.8" enable-background="new 0 0 50.3 80.8" xml:space="preserve">
<g>
	<path fill="#FEFDFD" d="M5.8,23.8c0-0.3,0.1-0.5,0.3-0.6c0.4-0.3,0.8-0.7,1.3-1c0.4-0.3,0.6-0.2,0.8,0.2c0.4,1,0.8,2,1.3,2.9
		c2.7,5.8,6.5,11,11.1,15.5c0.4,0.4,0.7,0.4,1.1,0.1c0.3-0.3,0.6-0.5,1-0.7c0.5-0.4,0.5-0.5,0.1-1c-1.2-1.3-2.5-2.6-3.7-4
		c-3.6-4.1-6.4-8.7-8.7-13.7c-0.4-0.8-0.3-0.9,0.5-1.3c0.3-0.1,0.5-0.3,0.8-0.4c0.8-0.3,1-0.2,1.2,0.7c0.1,0.6,0.2,1.2,0.4,1.7
		c1,3.1,2.7,5.7,4.7,8.2c2.1,2.6,4.6,4.9,7.2,7.1c0.3,0.2,0.5,0.3,0.8,0c5-4.4,9.2-9.3,11.7-15.5c0.2-0.6,0.4-1.2,0.6-1.9
		c0.1-0.4,0.4-0.5,0.8-0.3c0.4,0.2,0.8,0.4,1.2,0.6c0.7,0.3,0.7,0.4,0.4,1.1c-0.8,1.9-1.7,3.6-2.7,5.4c-3.7,6.1-8.2,11.4-13.9,15.8
		c-0.8,0.6-1.7,1.2-2.5,1.8c-0.4,0.3-0.7,0.3-1.1-0.1c-3-2.6-5.7-5.6-8-8.8c-2.4-3.3-4.5-6.7-6-10.5C6,24.6,5.8,24.2,5.8,23.8z"/>
	<path fill="#FEFDFD" d="M22.7,75.3c-0.2,0.3-0.1,0.5-0.1,0.7c0,1.1,0,2.3,0,3.4c0,0.5-0.2,0.8-0.8,0.7c-1.6,0-1.5,0.1-1.5-1.4
		c0-4,0-7.9,0-11.9c0-0.8,0.1-0.9,0.9-0.9c1.5,0,1.5,0,1.7,1.5c0.5,2.8,0.9,5.5,1.4,8.3c0,0.1,0,0.2,0.1,0.3
		c0.2-0.1,0.2-0.3,0.2-0.4c0.5-3,1-5.9,1.5-8.9c0.1-0.6,0.4-0.8,0.9-0.8c1.8,0,1.6,0,1.6,1.6c0,3.9,0,7.8,0,11.7
		c0,0.9-0.1,0.9-0.9,0.9c-1.3,0-1.3,0-1.3-1.3c0-1.2,0-2.5-0.1-3.7c-0.2,1-0.3,2-0.5,3c-0.1,0.5-0.2,1-0.2,1.5
		c-0.1,0.4-0.2,0.6-0.7,0.6c-1.5,0-1.3,0.2-1.6-1.3C23.1,77.7,22.9,76.5,22.7,75.3z"/>
	<path fill="#FEFDFC" d="M22.9,45.4c0.1-0.3,0.3-0.4,0.5-0.5c4.3-2.5,7.9-5.9,11-9.8c2.3-2.8,4.3-5.8,6.1-8.9
		c0.6-1.1,1.1-2.3,1.7-3.5c0.4-0.8,0.4-0.8,1.1-0.4c0.4,0.2,0.9,0.5,1.3,0.7c0.3,0.2,0.4,0.3,0.2,0.7c-2,4.9-5,9.2-8.4,13.3
		c-2.3,2.8-4.8,5.4-7.7,7.6c-0.7,0.5-1.4,0.8-2.2,0.8C25.3,45.3,24.2,45.4,22.9,45.4z"/>
	<path fill="#FEFDFD" d="M5.4,72.7c0-2,0-4,0-5.9c0-0.7,0.1-0.8,0.8-0.8c1.4,0,1.4,0,1.4,1.4c0,3.9,0,7.9,0,11.8c0,0.9-0.1,1-1,1
		c-0.1,0-0.2,0-0.2,0c-1,0-1,0-1.2-1c-0.5-2.1-1-4.1-1.6-6.2c0-0.1-0.1-0.3-0.2-0.4c0,1.2,0,2.4,0,3.7c0,1.1,0,2.1,0,3.2
		c0,0.5-0.2,0.8-0.7,0.8c-1.6,0-1.5,0.1-1.5-1.5c0-3.9,0-7.9,0-11.8c0-0.8,0.1-0.9,0.9-0.9c1.6,0,1.6,0,2,1.5
		c0.4,1.8,0.9,3.5,1.3,5.3C5.3,72.7,5.3,72.7,5.4,72.7z"/>
	<path fill="#FEFDFC" d="M18.7,57.7c0-2.1,0-4.2,0-6.2c0-0.7,0.1-0.8,0.8-0.8c1.1,0,2.1,0,3.2,0c1.4,0,2.3,0.9,2.4,2.3
		c0.1,0.8,0,1.6,0,2.4c0,0.5-0.2,0.8-0.5,1.2c-0.2,0.2-0.4,0.4-0.6,0.6c-0.4,0.4-0.5,0.6,0.1,0.9c0.6,0.3,1,0.9,1,1.6
		c0,1.5,0,3.1,0,4.6c0,0.5-0.2,0.7-0.7,0.7c-1.5,0.1-1.6,0-1.6-1.4c0-0.9,0-1.8,0-2.7c0-0.4-0.1-0.7-0.5-0.8c-0.5-0.2-0.9-0.1-1.4,0
		c-0.2,0.1-0.1,0.3-0.1,0.5c0,1.2,0,2.4,0,3.6c0,0.8-0.1,0.9-0.9,0.9c-1.3,0-1.3,0-1.3-1.3C18.7,61.6,18.7,59.6,18.7,57.7z
		 M20.9,57.2c0,0,0.1,0,0.1,0c0.2-0.3,0.5-0.6,0.7-0.8c1.1-0.8,1.4-1.8,1.2-3.1c0-0.2,0.1-0.6-0.3-0.6c-0.6,0-1.2-0.2-1.7,0.1
		c0,0,0,0.1,0,0.2C20.9,54.5,20.9,55.9,20.9,57.2z"/>
	<path fill="#FDFDFC" d="M43,73c0-2.1,0-4.1,0-6.2c0-0.8,0.1-0.9,0.9-0.9c1.2,0,2.3,0,3.5,0c1.3,0,2.2,0.9,2.2,2.3
		c0,3.2,0,6.4,0,9.6c0,1.4-0.9,2.3-2.3,2.3c-1.2,0-2.4,0-3.6,0c-0.7,0-0.8-0.1-0.8-0.8C43,77.2,43,75.1,43,73z M45.3,73
		c0,1.4,0,2.7,0,4.1c0,0.8,0,0.8,0.8,0.8c0,0,0,0,0.1,0c1.1,0,1.3-0.2,1.3-1.2c0-2.4,0-4.7,0-7.1c0-1.5-0.1-1.6-1.6-1.6
		c-0.4,0-0.5,0.1-0.5,0.5C45.3,70.1,45.3,71.6,45.3,73z"/>
	<path fill="#FEFDFC" d="M37.4,15.2c0,5.4-2,10.1-5.3,14.3c-0.9,1.2-2.1,2.2-3.1,3.3c-0.3,0.3-0.6,0.3-0.9,0.1
		c-1.5-0.8-1.5-0.8-0.3-1.9c2.7-2.6,4.8-5.5,6.1-9c1.7-4.7,1.5-9.4-0.1-14c-0.3-0.8-0.6-1.5-0.9-2.3c-0.1-0.3-0.1-0.4,0.3-0.3
		c0.6,0.2,1.3,0.4,1.9,0.6c0.4,0.1,0.5,0.4,0.6,0.7C36.7,9.1,37.4,12.5,37.4,15.2z"/>
	<path fill="#FDFDFC" d="M12.6,60.5c-0.8,0.8-1.7,1.5-2.5,2.4c-0.3,0.4-0.3,1-0.3,1.5c-0.1,0.4-0.2,0.6-0.7,0.5c-0.3,0-0.7,0-1,0
		c-0.5,0-0.6-0.2-0.6-0.7c0.5-3.1,1-6.2,1.6-9.4c0.2-1.1,0.4-2.2,0.5-3.3c0.1-0.6,0.4-0.8,0.9-0.8c0.7,0,1.4,0,2.1,0
		c0.5,0,0.7,0.2,0.8,0.7c0.7,4.3,1.4,8.5,2.1,12.8c0.1,0.5-0.1,0.7-0.6,0.8c-1.5,0.1-1.5,0.1-1.7-1.4c-0.2-0.9-0.3-1.9-0.5-2.8
		C12.7,60.6,12.7,60.6,12.6,60.5z M11.6,53.9c0,0-0.1,0-0.1,0c-0.3,1.9-0.6,3.9-0.9,5.8c0.1,0,0.1,0.1,0.2,0.1c0.5-0.5,1-1,1.5-1.5
		c0.2-0.1,0.1-0.3,0-0.5C12.1,56.5,11.9,55.2,11.6,53.9z"/>
	<path fill="#FEFDFC" d="M17.2,73c0,1.6,0,3.1,0,4.7c0,1.5-0.9,2.4-2.4,2.4c-0.6,0-1.2,0-1.8,0c-1.2,0-2.2-0.9-2.2-2.1
		c0-3.3,0-6.6,0-9.9c0-1.2,0.9-2.1,2.1-2.2c0.7,0,1.5,0,2.2,0c1.3,0.1,2.1,1,2.1,2.3C17.2,69.8,17.2,71.4,17.2,73z M13,73
		c0,1.3,0,2.7,0,4c0,0.7,0.3,1,0.9,1c0.7,0,1.1-0.3,1.1-1c0-2.7,0-5.3,0-8c0-0.7-0.3-1-1-1c-0.7,0-0.9,0.2-0.9,1
		C13,70.3,13,71.7,13,73z"/>
	<path fill="#FEFDFD" d="M38.8,80.1c-1.2,0-0.9,0.2-1.2-1c-0.2-1-0.3-2-0.5-2.9c-0.1-0.4-0.2-0.4-0.5-0.1c-0.3,0.3-0.6,0.6-1,0.9
		c-0.9,0.7-1.6,1.5-1.6,2.7c0,0.4-0.2,0.5-0.6,0.5c-0.3,0-0.5,0-0.8,0c-0.8,0-0.9-0.1-0.8-0.9c0.4-2.5,0.8-4.9,1.2-7.4
		c0.3-1.6,0.5-3.2,0.8-4.9c0.2-0.9,0.2-1,1.2-1c0.6,0,1.2,0,1.7,0c0.6,0,0.9,0.2,1,0.8c0.4,2.5,0.8,4.9,1.2,7.4
		c0.3,1.7,0.6,3.3,0.8,5c0.2,0.9,0.1,1-0.8,1C38.9,80.1,38.9,80.1,38.8,80.1z M34.9,75c0,0,0.1,0.1,0.1,0.1c0.3-0.2,0.5-0.5,0.8-0.7
		c0.8-0.5,0.9-1.2,0.7-2.1c-0.3-1-0.4-2.1-0.6-3.1c0,0-0.1,0-0.1,0C35.5,71.1,35.2,73,34.9,75z"/>
	<path fill="#FEFDFC" d="M14.9,13.8c0.3,0,0.2,0.2,0.3,0.3c0.1,1.3,0.2,2.7,0.4,4c1,6.2,4.2,11.1,9.4,14.7c0.6,0.4,1.3,0.8,1.9,1.2
		c0.3,0.2,0.4,0.3,0.1,0.5c0,0,0,0,0,0c-1.3,1.3-1.3,1.3-2.8,0.3c-6.1-4-9.8-9.7-10.9-17C13,17.1,13,16.3,13,15.5
		c0-0.5,0.2-0.9,0.7-1.2C14.1,14.2,14.5,14,14.9,13.8z"/>
	<path fill="#FEFDFC" d="M24.4,25c-1.8-0.8-3.5-1.5-5.3-1.8c-1.2-0.2-1.8-0.8-2.1-1.9c-0.3-1.3-0.5-1.1,0.8-0.9
		c3.2,0.6,6.3,1.7,9.2,3.2c0.3,0.2,0.6,0.2,1,0.1c1.4-0.4,2.8-0.7,4.2-1c0.2,0,0.3-0.1,0.5,0c0.1,0.1,0,0.3-0.1,0.4c0,0,0,0,0,0.1
		c-0.5,1.4-1.3,2.3-2.9,2.6c-2.7,0.5-5.1,1.7-7.5,3c-0.4,0.3-0.7,0.2-1-0.2c-1.2-1.4-1.2-1.4,0.4-2.3C22.4,25.9,23.3,25.4,24.4,25z"
		/>
	<path fill="#FDFDFC" d="M41.1,50.6c0.4,0,0.8,0,1.2,0c0.5,0,0.7,0.2,0.7,0.7c0,0,0,0,0,0.1c0,1.4,0,1.4-1.4,1.4
		c-1.7,0-1.6,0-1.8,1.7c-0.1,1.2,0.2,2,1.4,2.5c0.5,0.2,0.8,0.5,1.3,0.8c0.5,0.3,0.6,0.7,0.6,1.2c0,1.2,0,2.3,0,3.5
		c0,1.3-1,2.3-2.3,2.3c-0.8,0-1.5,0-2.3,0c-0.5,0-0.8-0.2-0.8-0.7c0-1.5,0-1.5,1.5-1.5c1.6,0,1.6,0,1.7-1.6c0.1-1.1-0.2-1.8-1.2-2.2
		c-0.5-0.2-1-0.6-1.5-0.9c-0.4-0.3-0.6-0.6-0.6-1.1c0-1.3,0-2.6,0-3.9c0-1.4,1-2.2,2.4-2.2C40.4,50.6,40.7,50.6,41.1,50.6z"/>
	<path fill="#FDFDFC" d="M12.2,9.2c0.1-0.7,0.2-1.4,0.3-2.1c0-0.3,0.3-0.4,0.5-0.5c2.9-1.2,5.8-1.9,8.9-2.2c3-0.3,5.9,0.2,8.8,0.6
		c0.6,0.1,0.9,0.4,1,0.9c0.1,0.4,0.2,0.7,0.3,1c0.2,0.5,0,0.5-0.4,0.4c-2.5-0.7-5.1-1-7.6-1C20.1,6.5,16.4,7.4,12.8,9
		c-0.1,0.1-0.3,0.1-0.4,0.2C12.4,9.2,12.3,9.2,12.2,9.2z"/>
	<path fill="#FDFDFC" d="M13,12.9c0.1-0.8,0.2-1.5,0.4-2.2c0-0.3,0.3-0.4,0.5-0.5c4.6-1.9,9.4-2.7,14.4-2c1.1,0.1,2.3,0.4,3.4,0.5
		c0.5,0.1,0.8,0.3,0.9,0.8c0.1,0.5,0.3,1,0.4,1.7C26.1,9.3,19.5,9.8,13,12.9z"/>
	<path fill="#FDFDFC" d="M35.4,4.8c0,0.4-0.2,0.2-0.4,0.1c-0.9-0.3-1.8-0.6-2.7-0.9c-5.4-1.5-10.7-1.3-16,0.5
		c-0.2,0.1-0.5,0.3-0.7,0.1c-0.2-0.2,0-0.5,0.1-0.7c0.5-1.9,0.1-1.6,2.1-2.1c4.9-1.3,9.8-1.3,14.6,0.1c0.7,0.2,1.4,0.4,2.1,0.5
		c0.3,0.1,0.6,0.2,0.7,0.6C35.3,3.6,35.3,4.2,35.4,4.8z"/>
	<path fill="#FDFDFC" d="M30.3,58.7c0-1.7,0-3.4,0-5.2c0-0.5-0.2-0.7-0.6-0.6c-1.3,0-1.3,0-1.3-1.4c0-0.8,0.1-0.9,0.9-0.9
		c1.5,0,3,0,4.5,0c0.7,0,0.9,0.1,0.9,0.9c0,0.1,0,0.1,0,0.2c0,1.2,0,1.2-1.2,1.2c-0.6,0-0.7,0.2-0.7,0.7c0,3.4,0,6.7,0,10.1
		c0,0.4,0.1,0.8-0.3,1c-0.6,0.2-1.2,0.2-1.7,0c-0.3-0.1-0.2-0.5-0.2-0.8C30.3,62.2,30.3,60.5,30.3,58.7z"/>
	<path fill="#FDFDFC" d="M30.7,26.4c-0.7,1.2-1.5,2.2-2.4,3.2c-0.2,0.2-0.5,0.2-0.7,0.3c-1.1,0.4-2.1,0.9-3.1,1.4
		c-0.3,0.2-0.6,0.2-0.8-0.1c-0.4-0.4-0.8-0.7-1.2-1.1c-0.2-0.2-0.3-0.3,0-0.5C25,28.1,27.7,27,30.7,26.4z"/>
	<path fill="#FDFDFC" d="M22.3,25c-0.9,0.5-1.7,1-2.4,1.4c-0.3,0.2-0.4,0.1-0.6-0.1c-0.2-0.4-0.4-0.7-0.7-1.1
		c-0.3-0.5,0-1.2,0.6-1.1C20.3,24.2,21.3,24.6,22.3,25z"/>
	<path fill="none" d="M20.9,57.2c0-1.4,0-2.7,0-4.1c0-0.1,0-0.1,0-0.2c0.5-0.4,1.1-0.1,1.7-0.1c0.4,0,0.3,0.4,0.3,0.6
		c0.2,1.2-0.1,2.3-1.2,3.1c-0.3,0.2-0.5,0.5-0.7,0.8C21,57.3,21,57.3,20.9,57.2z"/>
	<path fill="none" d="M45.3,73c0-1.5,0-2.9,0-4.4c0-0.4,0.1-0.5,0.5-0.5c1.5,0,1.6,0,1.6,1.6c0,2.4,0,4.7,0,7.1
		c0,1.1-0.2,1.2-1.3,1.2c0,0,0,0-0.1,0c-0.8,0-0.8,0-0.8-0.8C45.2,75.8,45.3,74.4,45.3,73z"/>
	<path fill="none" d="M11.6,53.9c0.2,1.3,0.4,2.6,0.6,3.9c0,0.2,0.1,0.4,0,0.5c-0.5,0.5-1,1-1.5,1.5c-0.1,0-0.1-0.1-0.2-0.1
		c0.3-1.9,0.6-3.9,0.9-5.8C11.5,53.9,11.6,53.9,11.6,53.9z"/>
	<path fill="none" d="M13,73c0-1.3,0-2.6,0-3.9c0-0.7,0.2-1,0.9-1c0.8,0,1,0.2,1,1c0,2.7,0,5.3,0,8c0,0.7-0.3,1-1.1,1
		c-0.7,0-0.9-0.3-0.9-1C13,75.6,13,74.3,13,73z"/>
	<path fill="none" d="M34.9,75c0.3-2,0.7-3.9,1-5.9c0,0,0.1,0,0.1,0c0.2,1,0.3,2.1,0.6,3.1c0.2,0.9,0.1,1.6-0.7,2.1
		c-0.3,0.2-0.6,0.5-0.8,0.7C35,75,34.9,75,34.9,75z"/>
</g>
</svg>
