<?xml version="1.0" encoding="utf-8"?>
<!-- Generator: Adobe Illustrator 18.0.0, SVG Export Plug-In . SVG Version: 6.00 Build 0)  -->
<!DOCTYPE svg PUBLIC "-//W3C//DTD SVG 1.1//EN" "http://www.w3.org/Graphics/SVG/1.1/DTD/svg11.dtd">
<svg version="1.1" id="Layer_1" xmlns="http://www.w3.org/2000/svg" xmlns:xlink="http://www.w3.org/1999/xlink" x="0px" y="0px"
	 viewBox="17.1 76.5 447.1 111.6" enable-background="new 17.1 76.5 447.1 111.6" xml:space="preserve">
<g id="Layer_1_1_">
	<g>
		<g>
			<path fill="#18344D" d="M31.6,98.6v2.5H20v20.4h-2.9v-45h17.1V79H20v19.2h11.7V98.6z"/>
			<path fill="#18344D" d="M38.7,87.3c0-6.7,2.9-11.2,10-11.2s10,5,10,11.2v22.9c0,6.7-2.9,11.2-10,11.2c-6.7,0-10-5-10-11.2
				C38.7,110.2,38.7,87.3,38.7,87.3z M41.6,110.6c0,5,2.1,8.3,7.1,8.3s7.1-3.7,7.1-8.3V87.3c0-5-2.1-8.3-7.1-8.3s-7.1,3.7-7.1,8.3
				V110.6z"/>
			<path fill="#18344D" d="M66.2,110.6c0,5,1.7,8.7,6.7,8.7s6.7-3.7,6.7-8.7V76.5h2.9v34.1c0,6.2-2.5,11.2-9.6,11.2
				c-7.1,0-9.6-5-9.6-11.2V76.5h2.9C66.2,76.5,66.2,110.6,66.2,110.6z"/>
			<path fill="#18344D" d="M89.9,121.5h-2.5v-45h3.7l13.3,37.9V76.5h2.5v45h-2.9l-14.2-40V121.5z"/>
			<path fill="#18344D" d="M122.4,76.5c7.1,0,10,4.6,10,11.2v22.5c0,6.7-2.9,11.2-10,11.2h-10v-45H122.4z M122.4,119
				c5,0,7.1-3.3,7.1-8.3V87.7c0-5-2.1-8.3-7.1-8.3h-7.1V119H122.4z"/>
			<path fill="#18344D" d="M152.4,97.3v2.5h-12.1v18.7h14.6v2.5H137V76.5h17.9V79h-14.6v18.3H152.4z"/>
			<path fill="#18344D" d="M169,76.5c7.1,0,9.6,3.7,9.6,10v3.7c0,5.4-2.1,8.3-6.7,9.2c4.6,0.8,6.7,4.2,6.7,9.2v7.5
				c0,1.7,0,3.7,1.2,5.4H177c-0.8-1.2-0.8-2.9-0.8-5.4V109c0-5.8-3.3-7.5-8.3-7.5h-4.6v20h-2.9v-45H169z M167.4,98.6
				c5.4,0,8.3-1.7,8.3-7.5v-4.2c0-5-1.7-7.9-6.7-7.9h-6.2v19.6C162.8,98.6,167.4,98.6,167.4,98.6z"/>
			<path fill="#18344D" d="M198.6,111.5l-2.1,10H194l10-45h4.2l10,45h-2.9l-2.1-10H198.6z M199,109h13.3l-6.7-29.1L199,109z"/>
			<path fill="#18344D" d="M225.3,121.5h-2.5v-45h3.7l13.3,37.9V76.5h2.5v45H239l-14.2-40v40H225.3z"/>
			<path fill="#18344D" d="M257.3,76.5c7.1,0,10,4.6,10,11.2v22.5c0,6.7-2.9,11.2-10,11.2h-10v-45H257.3z M257.3,119
				c5,0,7.1-3.3,7.1-8.3V87.7c0-5-2.1-8.3-7.1-8.3h-7.1V119H257.3z"/>
			<path fill="#18344D" d="M297.3,121.5h-2.9l-9.6-39.6v40h-2.5V76.5h4.2l9.6,39.6l9.6-39.6h4.2v45h-2.9v-40L297.3,121.5z"/>
			<path fill="#18344D" d="M318.9,111.5l-2.1,10h-2.5l10-45h4.2l10,45h-2.9l-2.5-10H318.9z M319.4,109h12.9l-6.7-29.1L319.4,109z"/>
			<path fill="#18344D" d="M345.6,121.5h-2.5v-45h3.7l13.3,37.9V76.5h2.5v45h-3.3l-13.7-40V121.5z"/>
			<path fill="#18344D" d="M372.2,111.5l-2.1,10h-2.5l10-45h4.2l9.6,45h-2.9l-2.1-10H372.2z M372.7,109h12.9l-6.7-29.1L372.7,109z"
				/>
			<path fill="#18344D" d="M415.1,87.3v3.3h-2.9v-3.3c0-5-1.7-8.3-6.7-8.3s-6.7,3.7-6.7,8.3v23.3c0,5,1.7,8.3,6.7,8.3
				s6.7-3.7,6.7-8.3v-9.6h-5.8v-2.9h8.7v12.1c0,6.7-2.9,11.2-9.6,11.2c-7.1,0-9.6-5-9.6-11.2V87.3c0-6.7,2.9-11.2,9.6-11.2
				C412.2,76.1,415.1,81.1,415.1,87.3z"/>
			<path fill="#18344D" d="M435.1,97.3v2.5H423v18.7h14.6v2.5h-17.9V76.5h17.9V79H423v18.3H435.1z"/>
			<path fill="#18344D" d="M451.8,76.5c7.1,0,9.6,3.7,9.6,10v3.7c0,5.4-2.1,8.3-6.7,9.2c4.6,0.8,6.7,4.2,6.7,9.2v7.5
				c0,1.7,0,3.7,1.2,5.4h-2.9c-0.8-1.2-0.8-2.9-0.8-5.4V109c0-5.8-3.3-7.5-8.3-7.5h-5v20h-2.9v-45H451.8z M450.1,98.6
				c5.4,0,8.3-1.7,8.3-7.5v-4.2c0-5-1.7-7.9-6.7-7.9h-6.2v19.6C445.5,98.6,450.1,98.6,450.1,98.6z"/>
		</g>
		<g>
			<path fill="#18344D" d="M20,142.7v45h-2.9v-45H20z"/>
			<path fill="#18344D" d="M27.9,187.7h-2.5v-45h3.7l13.3,37.9v-37.9H45v45h-3.3l-14.2-40v40H27.9z"/>
			<path fill="#18344D" d="M60.4,142.7c7.1,0,10,4.6,10,11.2v22.5c0,6.7-2.9,11.2-10,11.2h-10v-45H60.4z M60.4,184.8
				c5,0,7.1-3.3,7.1-8.3v-22.9c0-5-2.1-8.3-7.1-8.3h-7.1v39.6H60.4z"/>
			<path fill="#18344D" d="M90.4,163.5v2.5H78.3v18.7h14.6v2.5H74.9v-44.6h17.9v2.5H78.3v18.3H90.4z"/>
			<path fill="#18344D" d="M107,142.7c7.1,0,9.6,4.2,9.6,10.8v5c0,7.1-3.3,10.8-10.4,10.8h-5.4v18.3h-2.9v-45H107z M106.2,166.4
				c5,0,7.5-2.5,7.5-7.9v-5.4c0-5-1.7-7.9-6.7-7.9h-6.2v21.2C100.8,166.4,106.2,166.4,106.2,166.4z"/>
			<path fill="#18344D" d="M136.2,163.5v2.5h-12.1v18.7h14.6v2.5h-17.9v-44.6h17.9v2.5h-14.6v18.3H136.2z"/>
			<path fill="#18344D" d="M146.6,187.7h-2.5v-45h3.7l13.3,37.9v-37.9h2.5v45h-3.3l-14.2-40v40H146.6z"/>
			<path fill="#18344D" d="M178.6,142.7c7.1,0,10,4.6,10,11.2v22.5c0,6.7-2.9,11.2-10,11.2h-10v-45H178.6z M178.6,184.8
				c5,0,7.1-3.3,7.1-8.3v-22.9c0-5-2.1-8.3-7.1-8.3h-7.1v39.6H178.6z"/>
			<path fill="#18344D" d="M208.6,163.5v2.5h-12.1v18.7h14.6v2.5h-17.9v-44.6h17.9v2.5h-14.6v18.3H208.6z"/>
			<path fill="#18344D" d="M218.6,187.7h-2.5v-45h3.7l13.3,37.9v-37.9h2.5v45h-3.3l-14.2-40v40H218.6z"/>
			<path fill="#18344D" d="M249,187.7v-42.5h-9.2v-2.5h21.2v2.5h-9.2v42.5H249z"/>
			<path fill="#18344D" d="M294,153.5v3.7H291v-3.7c0-5-1.7-8.3-6.7-8.3c-5,0-6.7,3.7-6.7,8.3v23.3c0,5,1.7,8.3,6.7,8.3
				c5,0,6.7-3.7,6.7-8.3v-5.4h2.9v5c0,6.7-2.9,11.2-9.6,11.2c-7.1,0-9.6-5-9.6-11.2v-22.9c0-6.7,2.9-11.2,9.6-11.2
				C291,142.3,294,146.9,294,153.5z"/>
			<path fill="#18344D" d="M301.9,176.8c0,5,1.7,8.7,6.7,8.7c5,0,6.7-3.7,6.7-8.7v-34.1h2.9v34.1c0,6.2-2.5,11.2-9.6,11.2
				c-7.1,0-9.6-5-9.6-11.2v-34.1h2.9L301.9,176.8L301.9,176.8z"/>
			<path fill="#18344D" d="M332.3,142.7c7.1,0,9.6,3.7,9.6,10v3.7c0,5.4-2.1,8.3-6.7,9.2c4.6,0.8,6.7,4.2,6.7,9.2v7.1
				c0,1.7,0,3.7,1.2,5.4h-2.9c-0.8-1.2-0.8-2.9-0.8-5.4v-7.1c0-5.8-3.3-7.5-8.3-7.5h-4.6v20h-2.9v-44.6H332.3z M330.6,164.8
				c5.4,0,8.3-1.7,8.3-7.5v-4.2c0-5-1.7-7.9-6.7-7.9H326v19.6H330.6z"/>
			<path fill="#18344D" d="M352.3,177.7l-2.5,10h-2.5l10-45h4.2l10,45h-2.9l-2.1-10C366.4,177.7,352.3,177.7,352.3,177.7z
				 M352.7,175.2h12.9l-6.7-29.1L352.7,175.2z"/>
			<path fill="#18344D" d="M383.5,187.7v-42.5h-9.2v-2.5h21.2v2.5h-9.2v42.5H383.5z"/>
			<path fill="#18344D" d="M399.3,153.5c0-6.7,2.9-11.2,10-11.2c7.1,0,10,5,10,11.2v22.9c0,6.7-2.9,11.2-10,11.2
				c-6.7,0-10-5-10-11.2V153.5z M402.2,176.8c0,5,2.1,8.3,7.1,8.3s7.1-3.7,7.1-8.3v-23.3c0-5-2.1-8.3-7.1-8.3s-7.1,3.7-7.1,8.3
				V176.8z"/>
			<path fill="#18344D" d="M433.4,142.7c7.1,0,9.6,3.7,9.6,10v3.7c0,5.4-2.1,8.3-6.7,9.2c4.6,0.8,6.7,4.2,6.7,9.2v7.1
				c0,1.7,0,3.7,1.2,5.4h-2.9c-0.8-1.2-0.8-2.9-0.8-5.4v-7.1c0-5.8-3.3-7.5-8.3-7.5h-4.6v20h-2.9v-44.6H433.4z M431.8,164.8
				c5.4,0,8.3-1.7,8.3-7.5v-4.2c0-5-1.7-7.9-6.7-7.9h-6.2v19.6H431.8z"/>
		</g>
	</g>
</g>
<g id="Layer_2">
</g>
</svg>
