<?xml version="1.0" encoding="utf-8"?>
<!-- Generator: Adobe Illustrator 18.0.0, SVG Export Plug-In . SVG Version: 6.00 Build 0)  -->
<!DOCTYPE svg PUBLIC "-//W3C//DTD SVG 1.1//EN" "http://www.w3.org/Graphics/SVG/1.1/DTD/svg11.dtd">
<svg version="1.1" xmlns="http://www.w3.org/2000/svg" xmlns:xlink="http://www.w3.org/1999/xlink" x="0px" y="0px"
	 viewBox="0 0 113.6 28.7" enable-background="new 0 0 113.6 28.7" xml:space="preserve">
<g id="Layer_1">
	<g>
		<g>
			<path fill="#18344D" d="M7.6,6.8v0.6H4.8v4.9H4.1V1.5h4.1v0.6H4.8v4.6H7.6z"/>
			<path fill="#18344D" d="M9.3,4.1c0-1.6,0.7-2.7,2.4-2.7c1.7,0,2.4,1.2,2.4,2.7v5.5c0,1.6-0.7,2.7-2.4,2.7c-1.6,0-2.4-1.2-2.4-2.7
				V4.1z M10,9.7c0,1.2,0.5,2,1.7,2c1.2,0,1.7-0.9,1.7-2V4.1c0-1.2-0.5-2-1.7-2c-1.2,0-1.7,0.9-1.7,2V9.7z"/>
			<path fill="#18344D" d="M15.9,9.7c0,1.2,0.4,2.1,1.6,2.1c1.2,0,1.6-0.9,1.6-2.1V1.5h0.7v8.2c0,1.5-0.6,2.7-2.3,2.7
				c-1.7,0-2.3-1.2-2.3-2.7V1.5h0.7V9.7z"/>
			<path fill="#18344D" d="M21.6,12.3H21V1.5h0.9l3.2,9.1V1.5h0.6v10.8H25l-3.4-9.6V12.3z"/>
			<path fill="#18344D" d="M29.4,1.5c1.7,0,2.4,1.1,2.4,2.7v5.4c0,1.6-0.7,2.7-2.4,2.7H27V1.5H29.4z M29.4,11.7c1.2,0,1.7-0.8,1.7-2
				V4.2c0-1.2-0.5-2-1.7-2h-1.7v9.5H29.4z"/>
			<path fill="#18344D" d="M36.6,6.5v0.6h-2.9v4.5h3.5v0.6h-4.3V1.5h4.3v0.6h-3.5v4.4H36.6z"/>
			<path fill="#18344D" d="M40.6,1.5c1.7,0,2.3,0.9,2.3,2.4v0.9c0,1.3-0.5,2-1.6,2.2c1.1,0.2,1.6,1,1.6,2.2V11c0,0.4,0,0.9,0.3,1.3
				h-0.7c-0.2-0.3-0.2-0.7-0.2-1.3V9.3c0-1.4-0.8-1.8-2-1.8h-1.1v4.8h-0.7V1.5H40.6z M40.2,6.8c1.3,0,2-0.4,2-1.8V4
				c0-1.2-0.4-1.9-1.6-1.9h-1.5v4.7H40.2z"/>
			<path fill="#18344D" d="M47.7,9.9l-0.5,2.4h-0.6l2.4-10.8h1l2.4,10.8h-0.7l-0.5-2.4H47.7z M47.8,9.3H51l-1.6-7L47.8,9.3z"/>
			<path fill="#18344D" d="M54.1,12.3h-0.6V1.5h0.9l3.2,9.1V1.5h0.6v10.8h-0.8l-3.4-9.6V12.3z"/>
			<path fill="#18344D" d="M61.8,1.5c1.7,0,2.4,1.1,2.4,2.7v5.4c0,1.6-0.7,2.7-2.4,2.7h-2.4V1.5H61.8z M61.8,11.7
				c1.2,0,1.7-0.8,1.7-2V4.2c0-1.2-0.5-2-1.7-2h-1.7v9.5H61.8z"/>
			<path fill="#18344D" d="M71.4,12.3h-0.7l-2.3-9.5v9.6h-0.6V1.5h1l2.3,9.5l2.3-9.5h1v10.8h-0.7V2.7L71.4,12.3z"/>
			<path fill="#18344D" d="M76.6,9.9l-0.5,2.4h-0.6l2.4-10.8h1l2.4,10.8h-0.7L80,9.9H76.6z M76.7,9.3h3.1l-1.6-7L76.7,9.3z"/>
			<path fill="#18344D" d="M83,12.3h-0.6V1.5h0.9l3.2,9.1V1.5h0.6v10.8h-0.8L83,2.7V12.3z"/>
			<path fill="#18344D" d="M89.4,9.9l-0.5,2.4h-0.6l2.4-10.8h1L94,12.3h-0.7l-0.5-2.4H89.4z M89.5,9.3h3.1l-1.6-7L89.5,9.3z"/>
			<path fill="#18344D" d="M99.7,4.1v0.8H99V4.1c0-1.2-0.4-2-1.6-2s-1.6,0.9-1.6,2v5.6c0,1.2,0.4,2,1.6,2s1.6-0.9,1.6-2V7.4h-1.4
				V6.7h2.1v2.9c0,1.6-0.7,2.7-2.3,2.7c-1.7,0-2.3-1.2-2.3-2.7V4.1c0-1.6,0.7-2.7,2.3-2.7C99,1.4,99.7,2.6,99.7,4.1z"/>
			<path fill="#18344D" d="M104.5,6.5v0.6h-2.9v4.5h3.5v0.6h-4.3V1.5h4.3v0.6h-3.5v4.4H104.5z"/>
			<path fill="#18344D" d="M108.5,1.5c1.7,0,2.3,0.9,2.3,2.4v0.9c0,1.3-0.5,2-1.6,2.2c1.1,0.2,1.6,1,1.6,2.2V11c0,0.4,0,0.9,0.3,1.3
				h-0.7c-0.2-0.3-0.2-0.7-0.2-1.3V9.3c0-1.4-0.8-1.8-2-1.8H107v4.8h-0.7V1.5H108.5z M108.1,6.8c1.3,0,2-0.4,2-1.8V4
				c0-1.2-0.4-1.9-1.6-1.9H107v4.7H108.1z"/>
		</g>
		<g>
			<path fill="#18344D" d="M4.8,17.4v10.8H4.1V17.4H4.8z"/>
			<path fill="#18344D" d="M6.7,28.2H6.1V17.4H7l3.2,9.1v-9.1h0.6v10.8h-0.8l-3.4-9.6V28.2z"/>
			<path fill="#18344D" d="M14.5,17.4c1.7,0,2.4,1.1,2.4,2.7v5.4c0,1.6-0.7,2.7-2.4,2.7h-2.4V17.4H14.5z M14.5,27.5
				c1.2,0,1.7-0.8,1.7-2V20c0-1.2-0.5-2-1.7-2h-1.7v9.5H14.5z"/>
			<path fill="#18344D" d="M21.7,22.4V23h-2.9v4.5h3.5v0.6H18V17.4h4.3V18h-3.5v4.4H21.7z"/>
			<path fill="#18344D" d="M25.7,17.4c1.7,0,2.3,1,2.3,2.6v1.2c0,1.7-0.8,2.6-2.5,2.6h-1.3v4.4h-0.7V17.4H25.7z M25.5,23.1
				c1.2,0,1.8-0.6,1.8-1.9v-1.3c0-1.2-0.4-1.9-1.6-1.9h-1.5v5.1H25.5z"/>
			<path fill="#18344D" d="M32.7,22.4V23h-2.9v4.5h3.5v0.6h-4.3V17.4h4.3V18h-3.5v4.4H32.7z"/>
			<path fill="#18344D" d="M35.2,28.2h-0.6V17.4h0.9l3.2,9.1v-9.1h0.6v10.8h-0.8l-3.4-9.6V28.2z"/>
			<path fill="#18344D" d="M42.9,17.4c1.7,0,2.4,1.1,2.4,2.7v5.4c0,1.6-0.7,2.7-2.4,2.7h-2.4V17.4H42.9z M42.9,27.5
				c1.2,0,1.7-0.8,1.7-2V20c0-1.2-0.5-2-1.7-2h-1.7v9.5H42.9z"/>
			<path fill="#18344D" d="M50.1,22.4V23h-2.9v4.5h3.5v0.6h-4.3V17.4h4.3V18h-3.5v4.4H50.1z"/>
			<path fill="#18344D" d="M52.5,28.2h-0.6V17.4h0.9l3.2,9.1v-9.1h0.6v10.8h-0.8l-3.4-9.6V28.2z"/>
			<path fill="#18344D" d="M59.8,28.2V18h-2.2v-0.6h5.1V18h-2.2v10.2H59.8z"/>
			<path fill="#18344D" d="M70.6,20v0.9h-0.7V20c0-1.2-0.4-2-1.6-2c-1.2,0-1.6,0.9-1.6,2v5.6c0,1.2,0.4,2,1.6,2c1.2,0,1.6-0.9,1.6-2
				v-1.3h0.7v1.2c0,1.6-0.7,2.7-2.3,2.7c-1.7,0-2.3-1.2-2.3-2.7V20c0-1.6,0.7-2.7,2.3-2.7C69.9,17.3,70.6,18.4,70.6,20z"/>
			<path fill="#18344D" d="M72.5,25.6c0,1.2,0.4,2.1,1.6,2.1c1.2,0,1.6-0.9,1.6-2.1v-8.2h0.7v8.2c0,1.5-0.6,2.7-2.3,2.7
				c-1.7,0-2.3-1.2-2.3-2.7v-8.2h0.7V25.6z"/>
			<path fill="#18344D" d="M79.8,17.4c1.7,0,2.3,0.9,2.3,2.4v0.9c0,1.3-0.5,2-1.6,2.2c1.1,0.2,1.6,1,1.6,2.2v1.7
				c0,0.4,0,0.9,0.3,1.3h-0.7c-0.2-0.3-0.2-0.7-0.2-1.3v-1.7c0-1.4-0.8-1.8-2-1.8h-1.1v4.8h-0.7V17.4H79.8z M79.4,22.7
				c1.3,0,2-0.4,2-1.8v-1c0-1.2-0.4-1.9-1.6-1.9h-1.5v4.7H79.4z"/>
			<path fill="#18344D" d="M84.6,25.8L84,28.2h-0.6l2.4-10.8h1l2.4,10.8h-0.7l-0.5-2.4H84.6z M84.7,25.2h3.1l-1.6-7L84.7,25.2z"/>
			<path fill="#18344D" d="M92.1,28.2V18h-2.2v-0.6H95V18h-2.2v10.2H92.1z"/>
			<path fill="#18344D" d="M95.9,20c0-1.6,0.7-2.7,2.4-2.7c1.7,0,2.4,1.2,2.4,2.7v5.5c0,1.6-0.7,2.7-2.4,2.7c-1.6,0-2.4-1.2-2.4-2.7
				V20z M96.6,25.6c0,1.2,0.5,2,1.7,2c1.2,0,1.7-0.9,1.7-2V20c0-1.2-0.5-2-1.7-2c-1.2,0-1.7,0.9-1.7,2V25.6z"/>
			<path fill="#18344D" d="M104.1,17.4c1.7,0,2.3,0.9,2.3,2.4v0.9c0,1.3-0.5,2-1.6,2.2c1.1,0.2,1.6,1,1.6,2.2v1.7
				c0,0.4,0,0.9,0.3,1.3h-0.7c-0.2-0.3-0.2-0.7-0.2-1.3v-1.7c0-1.4-0.8-1.8-2-1.8h-1.1v4.8h-0.7V17.4H104.1z M103.7,22.7
				c1.3,0,2-0.4,2-1.8v-1c0-1.2-0.4-1.9-1.6-1.9h-1.5v4.7H103.7z"/>
		</g>
	</g>
</g>
<g id="Layer_2">
</g>
</svg>
