<?xml version="1.0" encoding="utf-8"?>
<!-- Generator: Adobe Illustrator 18.0.0, SVG Export Plug-In . SVG Version: 6.00 Build 0)  -->
<!DOCTYPE svg PUBLIC "-//W3C//DTD SVG 1.1//EN" "http://www.w3.org/Graphics/SVG/1.1/DTD/svg11.dtd">
<svg version="1.1" id="Layer_1" xmlns="http://www.w3.org/2000/svg" xmlns:xlink="http://www.w3.org/1999/xlink" x="0px" y="0px"
	 viewBox="0 0 233.7 42.8" enable-background="new 0 0 233.7 42.8" xml:space="preserve">
<g>
	<path fill="none" d="M202.3,21.5c0-6,0-12.1,0-18.1c0-0.8-0.2-1.1-1.1-1.1c-1.4,0.1-2.7,0.1-4.1,0c-0.9-0.1-1,0.3-1,1.1
		c0,4.7,0,9.4,0,14.2c0,0.8-0.1,1.2-1.1,1.1c-1.6-0.1-3.1-0.1-4.7,0c-0.9,0-1.2-0.2-1.2-1.2c0.1-4.7,0-9.4,0-14.2
		c0-0.8-0.2-1.1-1.1-1c-1.4,0.1-2.8,0-4.2,0c-0.6,0-0.8,0.1-0.8,0.8c0,12.3,0,24.6,0,36.8c0,0.6,0.1,0.8,0.8,0.8
		c1.4,0,2.8-0.1,4.2,0c1,0.1,1.1-0.3,1.1-1.1c0-4.8,0-9.7,0-14.5c0-0.7,0.2-1,0.9-0.9c1.6,0.1,3.3,0.1,4.9,0c0.9,0,1.1,0.2,1.1,1.1
		c-0.1,4.8,0,9.7,0,14.5c0,0.8,0.2,1,1,1c1.3-0.1,2.6-0.1,4,0c1.1,0.1,1.2-0.3,1.2-1.3C202.3,33.5,202.3,27.5,202.3,21.5z
		 M43.6,21.7C43.6,21.7,43.6,21.7,43.6,21.7c0-3.7,0.1-7.4,0-11.2c-0.1-2.9-1-5.5-3.5-7.1c-3.3-2-6.8-2.1-10.2-0.5
		c-3.2,1.5-4.4,4.4-4.4,7.7c-0.1,7.3-0.1,14.6,0,22c0,2.9,1,5.7,3.7,7.3c3.3,2,6.8,2,10.2,0.4c3.2-1.5,4.2-4.5,4.3-7.9
		C43.6,28.8,43.6,25.2,43.6,21.7z M175,40.8c0-0.1,0-0.2,0-0.2c-2-12.5-4-25-6-37.5c-0.1-0.7-0.4-0.7-1-0.7c-2.4,0-4.7,0-7.1,0
		c-0.8,0-1,0.2-1.1,1c-1,6.3-2,12.6-3,18.9c-1,6.1-1.9,12.3-2.9,18.5c1.6,0,3.1,0,4.6,0c0.8,0,1-0.2,1.1-1c0.2-1.7,0.6-3.4,0.7-5.1
		c0.1-0.8,0.4-1,1.1-0.9c1.8,0,3.7,0.1,5.5,0c0.7,0,1,0.2,1.1,0.9c0.2,1.7,0.5,3.5,0.7,5.2c0.1,0.4,0,0.9,0.7,0.9
		C171.4,40.8,173.2,40.8,175,40.8z M78.1,21.6c0,6.1,0,12.2,0,18.2c0,0.8,0.2,1,1,1c1.3-0.1,2.6-0.1,3.8,0c1,0.1,1.3-0.2,1.3-1.2
		c-0.1-4.6,0-9.1,0-13.7c0-0.8,0.2-1,1-1c2,0.1,4,0,6,0c0.7,0,0.9-0.2,0.9-0.9c-0.1-1.2-0.1-2.4,0-3.6c0-0.8-0.2-1.1-1-1.1
		c-1.9,0.1-3.8,0-5.8,0c-0.8,0-1.1-0.1-1.1-1c0.1-3.2,0.1-6.3,0-9.5c0-0.8,0.2-1.1,1.1-1.1c2.6,0.1,5.3,0,7.9,0c0.7,0,1.1-0.1,1-1
		c-0.1-1.2-0.1-2.4,0-3.6c0-0.8-0.2-1-1-1c-4.6,0-9.3,0-13.9,0c-0.9,0-1.1,0.2-1.1,1.1C78.2,9.5,78.1,15.5,78.1,21.6z M63.5,24.3
		c0-5.1,0-10.2,0-15.2c0-1,0.3-1.3,1.3-1.2c1.4,0.1,2.8,0,4.2,0c0.8,0,1-0.2,0.9-1c-0.1-1.3,0-2.6,0-3.8c0-0.6-0.2-0.8-0.7-0.8
		c-5.8,0-11.5,0-17.3,0c-0.5,0-0.7,0.2-0.7,0.7c0,1.4,0,2.7,0,4.1c0,0.7,0.2,0.8,0.8,0.8c1.4,0,2.8,0.1,4.2,0c1-0.1,1.3,0.2,1.3,1.3
		c0,10.2,0,20.4,0,30.6c0,0.8,0.2,1.1,1,1.1c1.4-0.1,2.7-0.1,4.1,0c0.8,0,1-0.2,1-1C63.5,34.6,63.5,29.5,63.5,24.3z M136.9,24.2
		c0,5.2,0,10.4,0,15.6c0,0.8,0.2,1,1,1c1.2-0.1,2.5-0.1,3.7,0c1,0.1,1.4-0.2,1.4-1.3c-0.1-10.2,0-20.3,0-30.5c0-0.9,0.2-1.2,1.1-1.1
		c1.5,0.1,3,0,4.4,0c0.6,0,0.9-0.1,0.8-0.8c0-1.3,0-2.6,0-4c0-0.7-0.2-0.8-0.8-0.8c-5.7,0-11.4,0-17,0c-0.7,0-0.9,0.2-0.8,0.9
		c0,1.2,0.1,2.5,0,3.7c0,0.7,0.1,1,0.9,1c1.5-0.1,3,0,4.4,0c0.8,0,1,0.2,1,1C136.9,14,136.9,19.1,136.9,24.2z M102.4,21.6
		c0,6.1,0,12.1,0,18.2c0,0.7,0.1,1.1,1,1c1.4-0.1,2.9-0.1,4.3,0c0.6,0,0.8-0.2,0.8-0.8c0-12.3,0-24.5,0-36.8c0-0.7-0.3-0.8-0.9-0.8
		c-1.4,0-2.7,0.1-4.1,0c-0.9-0.1-1.1,0.2-1.1,1.1C102.4,9.5,102.4,15.5,102.4,21.6z"/>
	<path fill="#16334B" d="M231.7,40.8c-1.8,0-3.5,0-5.3,0c-0.7,0-0.9-0.2-1-0.9c-0.2-1.7-0.5-3.5-0.7-5.2c-0.1-0.7-0.3-0.9-1-0.9
		c-1.9,0.1-3.8,0.1-5.6,0c-0.7,0-0.9,0.2-1,0.9c-0.2,1.7-0.5,3.4-0.7,5.1c-0.1,0.7-0.4,1-1.1,1c-1.5-0.1-3,0-4.6,0
		c0.9-5.7,1.8-11.4,2.7-17c1.1-6.8,2.2-13.6,3.3-20.5c0.1-0.7,0.3-1,1-0.9c2.4,0,4.7,0.1,7.1,0c0.8,0,1,0.3,1.1,1
		c1.9,12.1,3.8,24.1,5.8,36.2c0,0.1,0.1,0.2,0.2,0.3C231.7,40.1,231.7,40.5,231.7,40.8z M221,10.3c-0.1,0-0.2,0-0.3,0
		c-0.9,5.8-1.8,11.7-2.6,17.5c-0.1,0.6,0.1,0.7,0.7,0.7c1.4,0,2.8,0,4.2,0c0.6,0,0.8-0.1,0.7-0.8c-0.7-4.2-1.3-8.4-1.9-12.5
		C221.5,13.6,221.3,12,221,10.3z"/>
	<path fill="#14314A" d="M1.6,2.4c1.6,0,3.3,0.1,4.9,0c1-0.1,1.1,0.3,1.1,1.2c0,10.1,0,20.1-0.1,30.2c0,1.3,0.4,1.6,1.6,1.5
		c2.5-0.1,5,0,7.6,0c0.7,0,0.9,0.2,0.9,0.9c0,1.2-0.1,2.4,0,3.6c0,0.8-0.2,1.1-1,1.1c-5,0-10,0-15,0C1.6,28,1.6,15.2,1.6,2.4z"/>
	<path fill="#16334B" d="M202.3,21.5c0,6,0,12,0,18c0,0.9-0.2,1.4-1.2,1.3c-1.3-0.1-2.6-0.1-4,0c-0.8,0-1-0.2-1-1
		c0-4.8,0-9.7,0-14.5c0-0.9-0.2-1.1-1.1-1.1c-1.6,0.1-3.3,0.1-4.9,0c-0.8,0-0.9,0.2-0.9,0.9c0,4.8,0,9.7,0,14.5
		c0,0.8-0.1,1.2-1.1,1.1c-1.4-0.1-2.8-0.1-4.2,0c-0.6,0-0.8-0.2-0.8-0.8c0-12.3,0-24.6,0-36.8c0-0.7,0.2-0.8,0.8-0.8
		c1.4,0,2.8,0.1,4.2,0c0.8,0,1.1,0.2,1.1,1c0,4.7,0,9.4,0,14.2c0,1,0.3,1.2,1.2,1.2c1.6-0.1,3.1-0.1,4.7,0c1,0.1,1.1-0.3,1.1-1.1
		c0-4.7,0-9.4,0-14.2c0-0.8,0.1-1.1,1-1.1c1.4,0.1,2.7,0.1,4.1,0c0.8,0,1.1,0.2,1.1,1.1C202.3,9.5,202.3,15.5,202.3,21.5z"/>
	<path fill="#15324B" d="M43.6,21.7c0,3.6,0.1,7.1,0,10.7c-0.1,3.3-1.1,6.3-4.3,7.9c-3.4,1.6-6.9,1.6-10.2-0.4
		c-2.7-1.6-3.6-4.3-3.7-7.3c-0.1-7.3-0.1-14.6,0-22c0.1-3.3,1.2-6.2,4.4-7.7c3.4-1.6,7-1.5,10.2,0.5c2.6,1.6,3.5,4.2,3.5,7.1
		C43.7,14.2,43.6,17.9,43.6,21.7C43.6,21.7,43.6,21.7,43.6,21.7z M37.6,21.6c0-3.4,0-6.8,0-10.2c0-0.6,0-1.1-0.2-1.7
		c-0.4-1.6-1.3-2.3-3-2.3c-1.6,0-2.6,0.8-2.9,2.5c-0.1,0.6-0.2,1.2-0.2,1.8c0,6.6,0,13.2,0,19.8c0,0.7,0,1.4,0.2,2.1
		c0.3,1.3,1.2,2,2.6,2.1c2.2,0.2,3.4-1,3.4-3.5C37.6,28.7,37.6,25.1,37.6,21.6z"/>
	<path fill="#16334B" d="M175,40.8c-1.8,0-3.6,0-5.5,0c-0.7,0-0.6-0.4-0.7-0.9c-0.2-1.7-0.5-3.5-0.7-5.2c-0.1-0.7-0.4-0.9-1.1-0.9
		c-1.8,0.1-3.7,0-5.5,0c-0.7,0-1,0.1-1.1,0.9c-0.2,1.7-0.5,3.4-0.7,5.1c-0.1,0.7-0.4,1-1.1,1c-1.5-0.1-3,0-4.6,0
		c1-6.3,2-12.4,2.9-18.5c1-6.3,2-12.6,3-18.9c0.1-0.8,0.4-1,1.1-1c2.4,0,4.7,0,7.1,0c0.5,0,0.9,0,1,0.7c2,12.5,4,25,6,37.5
		C175.1,40.6,175,40.6,175,40.8z M164.4,10.3c-0.1,0-0.2,0-0.3,0c-0.9,5.8-1.8,11.7-2.6,17.5c-0.1,0.6,0.1,0.7,0.7,0.7
		c1.4,0,2.7,0,4.1,0c0.7,0,0.9-0.1,0.8-0.9c-0.7-4.1-1.2-8.2-1.8-12.3C164.9,13.7,164.6,12,164.4,10.3z"/>
	<path fill="#15314A" d="M78.1,21.6c0-6,0-12.1,0-18.1c0-0.9,0.2-1.1,1.1-1.1c4.6,0,9.3,0,13.9,0c0.8,0,1.1,0.2,1,1
		c-0.1,1.2-0.1,2.4,0,3.6c0.1,0.8-0.3,1-1,1c-2.6,0-5.3,0-7.9,0c-0.8,0-1.1,0.2-1.1,1.1c0.1,3.2,0.1,6.3,0,9.5c0,0.9,0.3,1,1.1,1
		c1.9-0.1,3.8,0,5.8,0c0.9,0,1.1,0.3,1,1.1c-0.1,1.2-0.1,2.4,0,3.6c0,0.7-0.2,0.9-0.9,0.9c-2,0-4,0-6,0c-0.8,0-1,0.2-1,1
		c0,4.6,0,9.1,0,13.7c0,1-0.3,1.3-1.3,1.2c-1.3-0.1-2.6-0.1-3.8,0c-0.8,0-1-0.2-1-1C78.1,33.7,78.1,27.7,78.1,21.6z"/>
	<path fill="#15314A" d="M63.5,24.3c0,5.2,0,10.3,0,15.5c0,0.8-0.2,1-1,1c-1.4-0.1-2.7-0.1-4.1,0c-0.9,0.1-1-0.3-1-1.1
		c0-10.2,0-20.4,0-30.6c0-1.1-0.3-1.3-1.3-1.3c-1.4,0.1-2.8,0-4.2,0c-0.6,0-0.9-0.1-0.8-0.8c0-1.4,0-2.7,0-4.1
		c0-0.5,0.2-0.7,0.7-0.7c5.8,0,11.5,0,17.3,0c0.6,0,0.8,0.2,0.7,0.8c0,1.3,0,2.6,0,3.8c0,0.7-0.2,1-0.9,1c-1.4-0.1-2.8,0-4.2,0
		c-1-0.1-1.3,0.2-1.3,1.2C63.6,14.2,63.5,19.2,63.5,24.3z"/>
	<path fill="#15314A" d="M136.9,24.2c0-5.1,0-10.2,0-15.4c0-0.8-0.2-1-1-1c-1.5,0.1-3,0-4.4,0c-0.8,0-0.9-0.2-0.9-1
		c0.1-1.2,0-2.5,0-3.7c0-0.7,0.1-0.9,0.8-0.9c5.7,0,11.4,0,17,0c0.6,0,0.9,0.1,0.8,0.8c0,1.3,0,2.6,0,4c0,0.7-0.2,0.8-0.8,0.8
		c-1.5,0-3,0.1-4.4,0c-0.9-0.1-1.1,0.3-1.1,1.1c0,10.2,0,20.3,0,30.5c0,1.1-0.3,1.4-1.4,1.3c-1.2-0.1-2.5-0.1-3.7,0
		c-0.8,0-1-0.2-1-1C136.9,34.6,136.9,29.4,136.9,24.2z"/>
	<path fill="#14314A" d="M102.4,21.6c0-6,0-12.1,0-18.1c0-0.9,0.2-1.2,1.1-1.1c1.4,0.1,2.7,0,4.1,0c0.6,0,0.9,0.1,0.9,0.8
		c0,12.3,0,24.5,0,36.8c0,0.6-0.2,0.8-0.8,0.8c-1.4,0-2.9-0.1-4.3,0c-0.8,0-1-0.3-1-1C102.4,33.7,102.4,27.6,102.4,21.6z"/>
	<path fill="none" d="M221,10.3c0.2,1.6,0.5,3.3,0.7,4.9c0.6,4.2,1.2,8.4,1.9,12.5c0.1,0.7-0.1,0.8-0.7,0.8c-1.4,0-2.8,0-4.2,0
		c-0.6,0-0.8-0.1-0.7-0.7c0.9-5.8,1.8-11.7,2.6-17.5C220.8,10.3,220.9,10.3,221,10.3z"/>
	<path fill="none" d="M37.6,21.6c0,3.6,0,7.1,0,10.7c0,2.4-1.2,3.6-3.4,3.5c-1.3-0.1-2.2-0.8-2.6-2.1c-0.2-0.7-0.2-1.4-0.2-2.1
		c0-6.6,0-13.2,0-19.8c0-0.6,0-1.2,0.2-1.8c0.3-1.7,1.2-2.4,2.9-2.5c1.7,0,2.6,0.7,3,2.3c0.1,0.5,0.2,1.1,0.2,1.7
		C37.6,14.8,37.6,18.2,37.6,21.6z"/>
	<path fill="none" d="M164.4,10.3c0.3,1.7,0.5,3.3,0.8,5c0.6,4.1,1.2,8.2,1.8,12.3c0.1,0.8-0.1,0.9-0.8,0.9c-1.4,0-2.7,0-4.1,0
		c-0.6,0-0.8-0.1-0.7-0.7c0.9-5.8,1.8-11.7,2.6-17.5C164.2,10.3,164.3,10.3,164.4,10.3z"/>
</g>
</svg>
